<?xml version="1.0" standalone="no"?>
<!DOCTYPE svg PUBLIC "-//W3C//DTD SVG 20010904//EN"
 "http://www.w3.org/TR/2001/REC-SVG-20010904/DTD/svg10.dtd">
<svg version="1.0" xmlns="http://www.w3.org/2000/svg"
 width="800.000000pt" height="567.000000pt" viewBox="0 0 800.000000 567.000000"
 preserveAspectRatio="xMidYMid meet">

<g transform="translate(0.000000,567.000000) scale(0.100000,-0.100000)"
fill="#000000" stroke="none">
<path d="M5068 5633 c7 -3 16 -2 19 1 4 3 -2 6 -13 5 -11 0 -14 -3 -6 -6z"/>
<path d="M5123 5631 c32 -11 1083 -18 1093 -8 4 4 -125 7 -287 7 -162 0 -415
2 -564 5 -170 3 -260 2 -242 -4z"/>
<path d="M6240 5618 c0 -5 93 -7 208 -7 114 1 196 4 182 5 -53 8 -390 9 -390
2z"/>
<path d="M6885 5620 c-3 -5 -1 -10 4 -10 6 0 11 5 11 10 0 6 -2 10 -4 10 -3 0
-8 -4 -11 -10z"/>
<path d="M7528 5618 c-10 -25 9 -28 182 -28 169 0 198 -6 244 -48 l29 -27 -17
27 c-31 49 -67 57 -254 60 -143 3 -172 6 -175 18 -2 12 -4 12 -9 -2z"/>
<path d="M6938 5613 c18 -2 45 -2 60 0 15 2 0 4 -33 4 -33 0 -45 -2 -27 -4z"/>
<path d="M7182 5603 c59 -2 158 -2 220 0 62 1 14 3 -107 3 -121 0 -172 -2
-113 -3z"/>
<path d="M3477 5514 c-1 -1 -402 -4 -892 -7 -870 -6 -1447 -17 -2009 -37 -153
-6 -311 -10 -350 -10 -60 0 -76 -4 -96 -22 l-23 -22 7 -1430 c4 -787 9 -1460
11 -1496 2 -36 6 -252 10 -480 3 -228 8 -482 11 -565 3 -82 9 -287 13 -455 8
-328 12 -354 64 -381 l22 -11 -23 22 c-32 30 -43 64 -42 124 1 50 -4 248 -14
606 -3 96 -8 312 -11 480 -3 168 -8 366 -10 440 -2 74 -7 547 -11 1051 -5 722
-4 918 6 924 10 6 10 9 0 15 -18 11 -16 303 2 327 5 7 5 14 -1 17 -6 4 -8 13
-5 20 3 8 1 30 -4 50 -6 20 -7 36 -3 36 4 0 5 19 2 43 -4 23 -4 62 0 87 3 25
3 54 -1 65 -4 11 -7 131 -6 267 1 188 4 250 14 260 10 10 82 15 285 20 150 3
327 9 395 12 67 2 122 1 122 -4 0 -5 -8 -11 -18 -13 -9 -3 21 -5 68 -6 53 0
80 3 71 8 -8 5 -37 7 -65 5 -39 -3 -46 -2 -29 5 42 19 916 32 2233 35 723 2
1392 1 1485 -3 168 -5 169 -5 70 -11 -63 -4 16 -7 215 -9 173 -1 326 -4 340
-6 14 -2 207 -4 430 -6 223 -1 443 -5 490 -8 l85 -6 -4 -59 c-2 -47 0 -58 11
-54 9 4 14 -1 15 -13 1 -12 -3 -16 -13 -12 -12 4 -14 -100 -16 -758 -1 -420
-2 -782 -3 -804 -3 -61 -6 -259 -5 -267 6 -29 1 -68 -13 -100 -16 -39 -31 -48
-41 -25 -4 6 -3 1 0 -13 16 -61 16 -110 2 -110 -24 0 -29 12 -10 26 20 15 12
27 -12 18 -14 -5 -16 -14 -11 -43 4 -20 11 -41 16 -47 12 -15 52 -242 49 -279
-4 -51 -2 -68 13 -135 9 -36 15 -65 14 -65 -1 0 -12 -5 -23 -12 -31 -17 -61
-5 -79 30 -16 32 -10 54 6 24 12 -21 29 -22 29 -3 0 8 7 22 16 30 22 23 6 68
-26 73 -19 3 -22 1 -12 -9 6 -6 12 -21 12 -32 0 -18 -1 -18 -20 -1 -10 9 -24
31 -30 49 -21 65 -61 130 -97 160 -70 57 -104 77 -141 83 -20 4 -54 17 -74 29
-21 14 -38 19 -40 13 -2 -6 -24 -12 -50 -12 -60 -2 -54 -27 7 -27 43 0 95 -29
95 -53 0 -7 16 -50 35 -97 34 -83 43 -120 27 -120 -4 0 -13 5 -20 12 -7 7 -12
8 -12 2 0 -11 30 -29 68 -39 27 -8 28 -19 2 -45 -18 -18 -19 -24 -8 -72 7 -29
11 -57 10 -61 -1 -4 4 -18 13 -30 8 -12 15 -35 15 -52 0 -17 7 -40 15 -51 8
-10 15 -27 15 -37 0 -10 4 -16 9 -12 6 3 4 19 -5 40 -22 54 -16 55 12 1 13
-27 24 -56 23 -65 -2 -9 8 -37 21 -64 l24 -48 -27 -25 c-15 -13 -27 -29 -27
-34 0 -6 -7 -10 -15 -10 -8 0 -15 5 -15 10 0 6 -9 10 -20 10 -11 0 -35 9 -55
20 -20 11 -40 20 -45 20 -24 0 -76 61 -122 144 l-18 31 6 -30 c7 -33 53 -106
93 -146 37 -36 90 -71 99 -65 14 9 36 -12 39 -38 4 -28 -14 -36 -24 -10 -3 9
-8 12 -12 5 -8 -13 -59 4 -123 42 -40 23 -51 25 -75 16 -15 -5 -30 -15 -34
-20 -8 -14 -41 1 -35 17 3 7 -7 23 -22 35 -15 11 -26 23 -24 25 7 10 -24 64
-35 64 -7 0 -13 7 -13 15 0 8 0 18 0 22 0 4 6 8 13 9 28 2 31 5 17 14 -8 5
-15 14 -15 20 0 20 -20 11 -26 -12 -7 -26 -11 -19 -29 49 -10 41 -30 68 -30
41 0 -21 28 -98 61 -168 28 -60 95 -149 144 -193 51 -45 149 -105 199 -121 10
-4 17 -9 14 -12 -3 -2 -18 0 -33 6 -23 9 -26 8 -21 -6 3 -8 6 -18 6 -20 0 -2
7 -4 15 -4 8 0 15 -5 15 -10 0 -6 6 -10 13 -8 7 2 14 -1 16 -7 5 -13 41 -38
47 -33 2 3 -7 21 -21 41 -13 21 -21 37 -16 37 5 0 33 -11 64 -24 45 -21 56
-30 62 -55 4 -17 11 -31 16 -31 5 0 9 -10 9 -22 1 -22 1 -22 14 -5 14 18 15
17 21 -2 5 -16 14 -21 37 -19 17 1 33 9 36 17 4 10 8 6 14 -14 5 -21 3 -34 -8
-46 -8 -9 -19 -31 -24 -48 l-9 -33 25 17 c38 25 37 14 -1 -21 -20 -18 -36 -27
-38 -20 -3 8 -8 8 -17 -1 -11 -10 -10 -16 2 -35 17 -27 22 -84 8 -93 -5 -3 -7
-20 -3 -37 4 -22 3 -29 -5 -24 -19 12 -35 -3 -21 -20 6 -7 15 -11 20 -8 5 3 9
-13 9 -35 0 -30 4 -41 15 -41 8 0 15 -4 15 -10 0 -5 -6 -10 -13 -10 -15 0 -18
-20 -10 -63 5 -29 27 -36 37 -11 9 23 7 31 -4 14 -15 -25 -22 -4 -11 36 7 25
7 42 1 48 -13 13 -13 39 -1 31 6 -3 14 2 19 10 6 12 16 14 35 10 15 -4 27 -11
27 -15 0 -5 9 -8 19 -7 11 0 17 6 14 14 -3 7 -9 11 -14 8 -13 -8 -48 26 -42
41 3 8 -3 17 -13 21 -27 10 -31 19 -33 76 0 39 2 48 11 39 18 -18 27 -14 21 8
-3 11 -9 18 -12 15 -4 -2 -8 2 -8 10 0 8 6 15 14 15 14 0 18 16 6 23 -5 2 -3
3 3 1 6 -1 16 2 22 8 14 14 57 19 141 18 76 -2 150 -34 178 -78 10 -15 27 -34
38 -43 18 -16 20 -15 30 5 15 31 82 34 118 6 35 -28 34 -61 -3 -102 -16 -18
-30 -36 -30 -41 0 -4 -4 -5 -10 -2 -16 10 -12 -16 15 -101 31 -100 43 -121 68
-128 13 -3 18 -10 14 -20 -4 -9 -2 -16 3 -16 6 0 10 11 10 25 0 15 -5 24 -12
22 -17 -3 -11 53 6 67 8 6 16 23 20 38 4 16 11 28 17 28 6 0 6 -6 -1 -19 -13
-26 8 -41 25 -18 15 21 25 22 25 2 0 -8 4 -15 10 -15 11 0 60 -51 60 -63 0 -5
-7 -16 -17 -25 -15 -15 -14 -17 8 -22 15 -4 25 -2 27 7 2 7 7 13 12 13 5 0 23
13 40 30 29 29 40 60 20 60 -5 0 -10 5 -10 10 0 6 9 10 20 10 11 0 20 6 20 13
0 7 9 21 21 30 16 15 18 21 9 33 -12 14 -11 15 11 18 7 0 15 11 20 22 6 17 1
26 -22 43 -17 13 -42 24 -57 25 -15 2 -27 9 -28 17 -3 33 -17 57 -30 52 -8 -3
-14 1 -14 9 0 17 40 38 73 38 12 0 31 7 41 15 26 20 50 19 42 0 -5 -13 -2 -14
17 -3 12 7 29 13 37 14 8 1 23 5 32 9 12 5 27 -2 49 -24 17 -17 36 -31 42 -31
7 0 6 -4 -3 -10 -12 -8 -12 -12 -2 -18 10 -7 8 -19 -11 -55 -21 -39 -23 -48
-11 -58 8 -6 25 -9 39 -7 14 3 28 1 31 -3 5 -9 -10 -18 -43 -24 -10 -2 -20 -4
-22 -4 -2 -1 1 -7 7 -13 7 -9 4 -31 -10 -73 -11 -33 -20 -65 -20 -72 -1 -6 -7
-9 -14 -6 -8 3 -11 -2 -7 -15 9 -35 -25 -42 -84 -19 -51 19 -67 40 -40 50 6 3
2 6 -11 6 -38 2 -23 -31 26 -54 23 -11 42 -23 42 -27 0 -15 -47 -13 -72 4 -26
18 -27 18 -37 -1 -16 -28 -14 -31 17 -31 16 0 32 -8 40 -20 14 -22 9 -25 -18
-10 -16 8 -18 8 -14 -5 11 -28 -26 -16 -38 13 -9 21 -12 23 -15 9 -6 -23 -20
-22 -28 3 -4 11 -11 17 -17 14 -7 -4 -6 -9 2 -14 8 -5 11 -22 8 -44 -3 -25 0
-36 9 -36 7 0 13 -5 13 -11 0 -6 -9 -8 -22 -4 -17 6 -20 4 -15 -9 4 -9 2 -27
-3 -41 -8 -22 -15 -24 -54 -23 -25 1 -42 5 -37 8 4 3 -1 25 -11 48 -22 48 -36
50 -20 3 9 -24 8 -31 -5 -36 -9 -3 -21 -1 -27 5 -14 14 -26 12 -26 -4 0 -8 10
-17 23 -19 22 -4 22 -4 0 -6 -12 0 -28 6 -37 14 -20 21 -26 19 -26 -9 0 -26
-31 -41 -49 -23 -8 8 -11 6 -11 -6 0 -9 -8 -17 -17 -17 -15 0 -15 -1 2 -13 17
-13 17 -14 -2 -28 -11 -8 -28 -29 -37 -47 -9 -18 -21 -30 -25 -27 -5 3 -7 -4
-4 -15 3 -11 2 -28 -3 -37 -14 -33 -14 -68 2 -122 17 -59 14 -71 -13 -50 -16
13 -17 12 -4 -3 7 -10 19 -18 26 -18 25 0 38 -32 39 -95 1 -35 -1 -61 -3 -59
-2 2 -9 -6 -15 -18 -6 -12 -23 -25 -38 -29 -31 -8 -88 -46 -88 -59 0 -40 -116
-146 -150 -137 -11 3 -18 2 -15 -2 6 -10 -60 -41 -88 -41 -12 0 -42 18 -66 40
-24 22 -46 40 -48 40 -8 0 -29 25 -36 43 -3 9 -14 17 -22 17 -10 0 -13 5 -9
12 4 7 3 8 -4 4 -6 -4 -32 9 -57 29 -26 19 -53 35 -61 35 -7 0 -19 9 -26 19
-13 21 -38 17 -38 -5 0 -18 -19 -18 -26 0 -3 8 -13 12 -23 9 -13 -3 -23 5 -35
31 -21 44 -42 60 -33 25 6 -23 6 -23 -9 -4 -8 11 -21 28 -29 38 -8 9 -15 28
-15 40 0 23 -17 47 -33 47 -4 0 -5 -9 -2 -20 6 -20 -31 -100 -47 -100 -4 0 -8
-6 -8 -13 0 -16 -38 -40 -51 -31 -5 3 -16 0 -24 -6 -13 -10 -15 -8 -15 14 0
15 4 25 9 21 15 -9 32 32 25 60 -5 20 0 31 20 50 33 30 34 47 2 39 -18 -4 -25
-1 -29 16 -4 16 -2 20 12 15 21 -6 85 51 119 107 47 76 242 150 301 114 18
-12 41 13 41 44 0 19 -18 51 -56 99 -31 39 -61 71 -65 71 -18 0 -8 26 22 63
36 43 60 47 88 11 l20 -25 17 25 c20 32 38 34 31 4 -5 -19 -5 -20 10 -5 14 14
14 17 -1 32 -16 16 -16 19 0 36 9 11 12 19 6 19 -6 0 -14 15 -17 32 -4 18 -12
39 -18 46 -8 10 -6 22 8 44 l18 31 -31 -5 c-28 -4 -30 -3 -21 20 5 13 9 25 9
28 0 2 -22 -18 -49 -45 -30 -30 -53 -46 -60 -41 -9 5 -8 11 4 24 9 9 21 16 26
16 21 0 7 15 -16 16 -14 1 -25 -4 -25 -11 0 -7 -7 -18 -15 -25 -9 -8 -15 -8
-15 -2 0 6 6 13 13 15 6 3 8 6 2 6 -5 0 -17 -4 -25 -9 -13 -8 -13 -13 3 -41
23 -41 22 -49 -8 -49 -22 0 -25 3 -20 29 3 19 0 35 -10 45 -8 8 -15 22 -15 30
0 9 -6 16 -14 16 -8 0 -16 7 -18 16 -2 11 -14 4 -46 -26 -46 -45 -75 -49 -80
-12 -3 20 0 22 22 16 29 -7 56 9 56 34 0 13 -4 12 -22 -5 -22 -19 -24 -19 -40
-2 -9 9 -13 20 -10 24 4 4 2 6 -3 4 -6 -1 -18 1 -29 6 -10 4 -30 4 -45 -1 -21
-8 -26 -16 -26 -43 0 -31 -3 -34 -60 -53 -88 -31 -116 -50 -141 -94 -27 -49
-38 -94 -24 -94 6 0 35 22 63 48 74 70 107 80 144 48 28 -24 63 -15 42 11 -12
14 -11 15 11 8 41 -12 52 -33 29 -56 -17 -17 -24 -39 -20 -63 1 -5 -8 -5 -21
-1 -13 4 -47 7 -75 7 -29 0 -53 4 -53 9 0 5 -6 9 -14 9 -9 0 -12 -7 -9 -21 5
-17 11 -20 33 -15 15 3 30 3 33 0 9 -9 -37 -50 -51 -46 -7 3 -22 -5 -34 -17
-17 -19 -18 -24 -6 -34 7 -7 11 -11 9 -10 -2 2 -10 -2 -18 -8 -10 -9 -13 -7
-13 8 0 10 -4 23 -10 29 -16 16 0 52 26 58 13 4 24 11 24 16 0 16 -51 0 -87
-28 -18 -13 -33 -28 -33 -33 0 -5 -10 -8 -22 -6 -20 2 -23 -2 -22 -35 1 -21
10 -49 20 -64 10 -15 24 -33 29 -41 7 -9 6 -16 -1 -21 -6 -4 -19 -22 -28 -39
-21 -41 -66 -48 -66 -10 0 25 -35 87 -49 87 -5 0 -12 -12 -16 -27 -3 -15 -17
-50 -31 -79 -13 -28 -24 -56 -24 -62 0 -7 -4 -12 -9 -12 -5 0 -12 -12 -15 -26
-6 -21 -9 -24 -21 -14 -13 11 -15 7 -15 -19 0 -30 -13 -41 -25 -21 -12 19 -25
-1 -25 -38 0 -46 -16 -75 -26 -49 -6 17 -8 17 -25 1 -15 -14 -21 -14 -34 -4
-19 16 -10 30 21 30 25 0 33 15 12 23 -10 4 -10 6 -1 6 16 1 63 45 63 59 0 6
10 30 21 52 12 23 19 44 15 47 -3 4 -84 1 -179 -6 -655 -46 -1321 -66 -1887
-57 -414 6 -1151 37 -1350 56 -58 6 -247 21 -419 35 -173 14 -344 30 -380 35
-158 25 -301 133 -373 280 -46 96 -52 126 -83 430 -62 611 -85 1269 -67 1955
19 701 46 1102 83 1200 61 162 197 278 363 310 175 34 1258 89 1971 100 590
10 1318 -10 2055 -55 513 -32 706 -51 774 -77 152 -60 295 -227 311 -366 12
-104 45 -614 45 -693 l0 -81 28 4 c24 3 31 -4 65 -61 44 -78 51 -147 17 -168
-26 -16 -26 -19 10 -71 17 -25 30 -53 30 -63 0 -16 2 -17 11 -4 8 12 10 12 8
-5 -3 -35 1 -46 12 -39 8 5 10 104 5 363 -3 196 -8 534 -12 751 -3 217 -9 419
-15 449 -17 102 -90 187 -180 211 -51 14 -324 25 -1229 51 -613 17 -1883 22
-2485 10 -854 -17 -1728 -51 -1832 -72 -97 -19 -171 -95 -194 -199 -9 -41 -13
-347 -13 -1230 -1 -1104 6 -1573 35 -2390 16 -476 23 -558 47 -606 20 -40 105
-124 124 -124 5 0 -10 15 -33 33 -55 41 -99 124 -98 181 l1 41 8 -46 c17 -98
82 -177 164 -197 62 -16 298 -30 1146 -67 274 -12 279 -12 135 -15 l-150 -3
163 -8 c387 -18 1098 -29 1796 -28 750 1 841 3 815 20 -9 6 0 8 26 8 35 -1 37
-2 15 -9 -19 -6 -12 -8 30 -8 30 0 49 2 43 5 -7 2 -13 10 -13 17 0 10 -201 12
-957 12 -881 0 -1463 8 -1522 20 -13 3 -21 8 -18 11 10 10 57 12 51 2 -3 -5
-1 -9 5 -9 5 0 13 5 16 10 3 6 11 10 16 10 6 0 8 -4 4 -10 -3 -5 10 -8 32 -7
29 2 38 6 37 20 -2 19 26 23 43 6 8 -8 17 -8 31 0 25 13 43 14 22 1 -10 -6 1
-8 33 -7 26 1 47 7 47 12 0 6 5 3 10 -5 5 -8 10 -10 10 -4 0 5 15 9 33 8 182
-15 391 -19 977 -19 377 1 713 3 748 7 42 4 62 2 62 -6 0 -7 3 -7 8 1 6 9 22
10 60 4 44 -7 52 -6 52 7 0 13 3 13 12 4 16 -16 41 -16 32 1 -4 6 2 4 13 -6
23 -20 34 -22 30 -6 -3 17 56 18 76 1 15 -14 17 -13 17 10 0 13 11 34 23 46
l24 22 -3 -60 c-1 -33 2 -60 7 -60 5 0 9 -7 9 -16 0 -9 6 -14 13 -11 10 4 13
-2 9 -20 -5 -25 -5 -25 22 -8 28 19 31 26 16 41 -7 7 -2 18 14 33 30 28 49 21
36 -15 -5 -13 -9 -28 -9 -32 1 -4 1 -16 0 -27 -2 -19 -2 -19 -12 -2 -8 14 -14
16 -25 6 -8 -6 -14 -18 -14 -26 0 -13 3 -13 15 -3 13 11 15 8 15 -14 0 -24 2
-25 20 -16 19 10 20 9 15 -17 l-6 -28 14 24 c13 21 13 27 1 39 -17 16 -19 42
-3 42 5 0 7 -6 3 -12 -4 -7 7 2 24 20 31 33 59 38 55 11 -1 -8 -3 -23 -5 -34
-4 -26 22 -26 43 -1 15 19 15 21 -5 38 -20 17 -19 17 66 18 72 0 89 3 97 17 9
15 11 12 12 -17 2 -84 -4 -181 -13 -196 -4 -5 -3 -16 3 -24 5 -8 9 -22 9 -30
0 -12 -2 -13 -9 -1 -7 11 -11 10 -21 -5 -7 -12 -10 -13 -7 -4 4 13 -2 15 -32
12 -44 -5 -61 -18 -61 -46 0 -27 -18 -46 -43 -46 -11 0 -15 -4 -11 -12 4 -7 3
-8 -5 -4 -8 5 -7 13 4 29 24 34 18 53 -32 102 l-48 45 -780 0 c-690 0 -996 4
-1910 25 -126 2 -360 7 -520 10 -159 4 -416 11 -570 16 -154 5 -361 12 -460
15 -208 7 -236 15 -273 82 -28 50 -39 53 -40 10 -1 -41 -22 -54 -44 -28 -16
20 -17 20 -11 -17 12 -82 61 -156 124 -189 42 -21 106 -33 199 -35 l85 -2 7
38 c9 42 -8 64 -49 65 -13 0 -23 5 -23 11 0 5 -5 7 -10 4 -15 -9 -12 4 4 21 8
8 23 14 33 14 15 0 16 -2 3 -10 -9 -6 -10 -10 -3 -10 6 0 14 4 17 9 4 5 39 9
79 9 54 -1 77 -5 92 -18 18 -16 25 -16 68 -5 26 6 50 9 52 5 6 -10 55 -19 55
-10 0 14 49 17 84 5 20 -7 33 -9 30 -4 -3 5 4 9 15 9 10 0 22 -6 24 -12 4 -10
8 -10 15 1 5 7 11 9 13 4 8 -20 86 -62 97 -51 6 6 12 6 16 -1 10 -15 26 -14
22 2 -1 6 -1 9 1 4 3 -4 10 -4 16 0 6 4 8 1 5 -8 -7 -18 44 -18 67 1 14 12 15
10 11 -13 -3 -19 -1 -24 10 -20 8 3 14 0 14 -6 0 -6 -5 -11 -12 -11 -8 0 -6
-6 5 -17 12 -12 38 -18 89 -20 40 -2 152 -7 248 -12 l175 -8 -175 3 c-96 1
-184 3 -195 4 -11 0 -90 1 -175 1 -85 0 -274 4 -419 9 -145 6 -267 8 -269 5
-5 -5 0 -27 51 -194 23 -78 37 -107 55 -119 32 -21 266 -27 1712 -42 1751 -19
3637 -8 4760 28 215 7 229 7 310 -15 130 -35 172 -28 166 30 -2 17 1 24 9 20
13 -4 28 12 31 34 1 6 -4 9 -12 6 -8 -3 -11 -9 -8 -14 3 -5 -6 -9 -21 -9 -14
0 -28 7 -31 15 -4 8 -12 15 -20 15 -21 0 -17 -18 7 -25 11 -4 18 -12 16 -18
-5 -16 -27 -21 -27 -5 0 16 -59 73 -67 64 -3 -3 0 -12 6 -20 16 -19 -4 -32
-24 -16 -16 14 -21 45 -5 35 5 -3 7 8 5 26 -2 18 -10 36 -17 40 -11 7 -11 9 0
9 7 0 10 5 7 11 -4 6 -9 8 -12 5 -7 -7 -57 44 -66 68 -6 14 -4 17 8 12 13 -5
14 -2 4 16 -10 19 -9 20 10 15 23 -6 31 18 9 26 -7 2 -9 8 -5 13 4 5 12 3 16
-4 4 -7 15 -10 24 -6 9 3 15 10 12 14 -3 4 4 10 15 13 11 3 20 1 20 -4 0 -5
-4 -9 -10 -9 -5 0 -10 -9 -10 -21 0 -12 4 -17 11 -14 6 4 17 -1 25 -11 14 -17
15 -17 10 -2 -3 10 -1 20 4 23 9 5 15 -15 11 -37 0 -4 8 -12 19 -18 15 -8 27
-7 51 5 31 17 59 8 59 -19 0 -13 35 -37 43 -29 3 3 -6 16 -20 29 -32 30 -24
42 11 19 16 -11 26 -13 26 -6 0 6 -4 11 -10 11 -5 0 -10 5 -10 10 0 16 30 12
36 -5 7 -17 24 -10 24 10 0 9 -6 12 -15 9 -21 -8 -19 13 3 25 16 9 16 11 -2
24 -18 13 -17 14 14 20 21 5 38 2 48 -5 8 -7 18 -12 21 -12 3 1 16 -2 29 -7
70 -27 114 -22 133 14 12 21 11 21 -8 5 -11 -10 -33 -18 -49 -18 -29 0 -141
48 -115 49 25 2 80 51 105 94 25 42 47 145 29 134 -5 -3 -18 8 -28 24 -11 16
-22 29 -25 29 -3 0 -16 -21 -30 -48 -17 -32 -38 -54 -65 -69 -53 -28 -61 -28
-74 4 -6 16 -20 42 -31 59 l-20 31 25 -5 c34 -6 115 7 115 19 0 6 -30 9 -75 8
-72 -2 -76 -1 -97 27 -18 22 -24 44 -27 101 -2 49 0 73 8 73 6 0 11 -3 11 -7
0 -14 183 -9 187 5 3 6 -1 12 -9 13 -51 2 -212 -3 -223 -7 -9 -4 -16 3 -21 20
-10 42 -30 51 -118 51 -70 0 -81 2 -84 18 -4 17 -2 18 27 2 17 -8 31 -12 31
-7 0 5 -10 14 -22 19 l-23 11 25 0 c283 0 389 4 393 15 4 9 6 9 6 0 1 -18 21
-16 21 2 0 8 -6 15 -12 16 -28 2 -190 -1 -300 -6 -77 -4 -118 -2 -118 5 0 5
14 10 31 10 18 0 37 7 43 15 9 13 40 16 184 16 143 0 172 3 172 15 0 8 -6 14
-12 15 -7 0 -73 0 -145 0 -81 -1 -133 3 -133 9 0 6 9 10 19 10 31 0 34 17 4
25 -17 4 -29 2 -31 -4 -5 -14 -42 -14 -42 -1 0 6 7 10 15 10 8 0 15 7 15 15 0
19 2 19 53 -4 54 -24 252 -28 261 -5 6 15 -3 17 -74 14 -25 -1 -46 -5 -48 -10
-4 -10 -78 21 -98 41 -11 12 4 14 103 14 84 0 117 3 120 13 6 15 -73 17 -82 2
-3 -6 -14 -10 -23 -9 -14 0 -13 2 3 10 15 7 13 8 -12 3 -18 -3 -34 -1 -38 6
-6 9 -10 9 -16 -1 -4 -7 -11 -10 -15 -6 -12 11 28 36 59 37 17 0 26 4 22 10
-4 6 5 10 22 9 15 -1 36 2 46 6 10 4 17 3 17 -4 0 -6 5 -11 10 -11 6 0 10 7
10 15 0 15 -46 20 -122 15 -29 -2 -34 5 -19 29 7 11 27 14 75 12 54 -2 66 0
66 13 0 14 -11 20 -32 17 -9 -1 -180 -3 -192 -2 -5 1 -2 9 5 18 10 13 8 13
-10 -2 -13 -11 -37 -20 -54 -20 -36 0 -49 -22 -15 -27 13 -2 53 -1 89 2 65 5
66 5 56 -17 -9 -21 -63 -37 -73 -21 -3 4 -21 1 -40 -7 -37 -15 -39 -14 -24 16
8 15 7 19 -4 19 -8 0 -18 -4 -21 -10 -3 -5 -13 -10 -22 -10 -12 0 -13 3 -4 14
6 8 11 18 9 22 -1 5 6 22 16 37 17 25 25 28 70 27 28 -1 95 -1 149 -1 79 1 97
4 97 16 0 18 3 17 -123 15 -104 -1 -119 3 -111 24 5 12 110 21 216 18 9 0 19
6 22 14 3 9 -1 14 -12 15 -68 2 -243 -3 -269 -7 -21 -4 -33 -2 -33 5 0 6 10
11 23 12 18 0 19 2 5 7 -10 4 -48 7 -85 6 -46 -1 -59 1 -42 6 15 4 112 8 215
9 171 2 220 8 201 27 -5 6 -268 6 -369 1 -31 -2 -35 0 -27 15 5 9 13 19 18 22
4 3 90 6 189 6 165 1 208 7 188 27 -7 8 -322 6 -347 -2 -22 -7 -24 3 -5 27 11
16 34 18 179 19 156 1 200 8 168 28 -6 4 -98 6 -204 4 -167 -3 -188 -1 -162
10 29 13 185 28 308 29 31 0 60 5 63 10 10 16 -18 29 -51 23 -28 -5 -28 -5
-10 9 25 19 14 20 -28 2 -20 -8 -74 -14 -136 -14 -56 -1 -108 -5 -114 -8 -7
-4 -1 5 13 19 24 25 30 26 174 29 126 4 149 7 158 21 8 16 -2 17 -136 12 -94
-3 -146 -1 -146 6 0 15 47 29 101 31 27 0 46 4 44 9 -3 4 8 7 25 7 16 -1 30
-5 30 -10 0 -4 17 -8 39 -8 30 0 40 4 44 20 5 21 -1 24 -62 20 -22 -1 -31 2
-27 9 9 14 -7 14 -21 0 -6 -6 -36 -12 -67 -14 -53 -2 -70 5 -45 20 6 4 8 13 5
21 -3 8 1 14 10 14 8 0 12 -5 9 -10 -9 -14 18 -12 34 2 11 10 13 10 7 1 -5 -9
0 -13 13 -13 12 0 21 5 21 11 0 8 4 8 13 2 6 -5 33 -10 59 -11 37 0 47 3 51
19 5 18 -1 19 -104 19 -90 0 -109 3 -109 15 0 8 7 15 15 15 8 0 15 5 15 11 0
8 6 7 17 -2 14 -12 16 -12 8 0 -6 11 -3 13 18 8 14 -4 33 -10 43 -14 12 -4 15
-3 10 5 -4 7 -3 12 3 12 5 0 11 -5 13 -11 5 -16 65 -2 72 17 3 9 -1 14 -12 15
-39 1 -195 -2 -237 -6 -34 -3 -47 0 -54 13 -9 16 -10 16 -16 0 -5 -12 -18 -16
-50 -16 l-44 1 24 19 c18 14 40 18 98 18 51 0 77 4 80 13 4 8 8 9 14 2 4 -6
47 -11 95 -13 78 -2 88 0 98 18 9 16 8 20 -7 21 -25 1 -164 -2 -332 -6 -142
-4 -143 -4 -126 15 16 18 32 20 142 20 92 0 123 3 123 13 0 8 3 8 8 2 10 -16
90 -19 108 -5 8 7 14 8 14 2 0 -13 57 -9 71 5 7 7 10 15 6 19 -5 6 -172 5
-339 -1 -43 -2 -78 0 -78 4 0 4 10 17 23 29 20 19 35 22 100 22 45 0 77 -4 77
-10 0 -5 5 -10 11 -10 5 0 7 5 4 10 -9 15 59 12 73 -2 10 -10 15 -10 21 1 6 8
14 10 22 5 32 -19 89 -12 89 12 0 8 -8 14 -17 15 -56 1 -284 -3 -377 -7 -100
-4 -108 -3 -102 13 6 16 6 16 -12 0 -22 -20 -52 -23 -52 -5 0 9 -3 9 -12 0
-19 -19 -48 -15 -48 7 0 15 8 21 38 24 l37 4 -42 1 c-37 2 -43 -1 -43 -18 0
-27 -14 -32 -94 -28 l-68 3 21 27 c19 24 25 25 54 17 40 -11 46 -11 27 1 -12
8 -10 10 8 10 13 0 20 -4 17 -10 -3 -5 -1 -10 4 -10 6 0 11 5 11 10 0 6 38 10
95 10 57 0 95 -4 95 -10 0 -5 12 -10 28 -9 24 0 25 1 7 9 -13 6 14 9 78 9 63
1 96 -3 92 -9 -3 -5 0 -10 9 -10 8 0 17 6 20 13 5 9 7 9 12 0 4 -8 13 -9 29
-3 14 5 26 6 29 2 4 -7 36 -7 144 -3 19 1 14 31 -5 32 -36 1 -206 -1 -490 -7
-181 -4 -293 -3 -293 3 0 5 10 19 23 31 24 23 43 30 32 12 -3 -5 3 -10 14 -10
12 0 21 5 21 10 0 6 18 10 41 10 24 0 38 -4 34 -10 -4 -6 29 -9 92 -8 l98 2
-85 6 c-77 6 -71 6 62 8 109 2 148 -1 151 -10 4 -10 8 -10 14 -1 7 9 132 11
198 3 43 -5 105 4 105 16 0 19 32 18 -569 9 -336 -6 -344 -5 -328 13 9 10 14
21 11 25 -3 3 15 4 40 3 25 -1 46 1 46 6 0 4 5 8 11 8 5 0 7 -5 4 -10 -3 -5 3
-10 15 -10 12 0 18 4 15 10 -3 5 -1 10 4 10 6 0 11 -4 11 -10 0 -5 5 -10 11
-10 5 0 7 5 4 10 -4 6 20 10 67 9 55 -1 66 -3 43 -9 -25 -6 -20 -8 25 -8 42 0
49 2 30 8 -18 6 -7 8 43 9 38 1 67 -3 67 -9 0 -5 10 -10 23 -10 18 0 19 2 7
10 -12 8 -9 10 13 10 15 0 27 -4 27 -10 0 -5 5 -10 11 -10 5 0 7 4 4 10 -4 6
8 10 29 10 20 0 36 -5 36 -11 0 -8 5 -8 15 1 11 9 30 10 63 6 71 -11 185 -7
194 7 6 9 8 9 8 0 0 -7 5 -13 10 -13 15 0 12 30 -2 31 -47 2 -287 0 -608 -6
-206 -5 -386 -8 -399 -7 -18 0 -20 -2 -10 -9 8 -5 10 -9 4 -10 -5 0 -1 -4 10
-8 12 -5 23 -4 27 3 4 6 8 -2 8 -19 0 -27 -3 -30 -34 -30 -19 0 -32 3 -29 8 2
4 -3 7 -11 7 -23 0 -31 22 -13 35 10 7 17 15 17 20 0 16 39 55 45 45 3 -5 12
-10 18 -10 7 0 6 4 -3 10 -10 7 1 8 38 4 35 -4 52 -2 52 5 0 8 6 7 20 -1 15
-10 22 -10 32 0 9 9 72 12 233 12 132 0 214 -4 206 -9 -10 -7 -7 -9 12 -8 14
1 23 6 20 10 -7 12 60 4 70 -8 6 -7 10 -7 13 0 3 7 56 9 148 7 133 -4 143 -3
148 14 6 22 38 21 -625 10 -360 -6 -378 -6 -375 11 3 14 14 18 51 19 53 2 77
13 31 15 -29 1 -29 1 -4 9 l25 8 -28 1 c-28 1 -28 1 -10 26 25 33 31 31 43
-15 6 -24 17 -40 25 -40 8 0 15 5 15 10 0 6 5 10 11 10 5 0 7 -4 4 -10 -4 -7
47 -10 147 -10 102 0 148 4 138 10 -12 8 -9 10 13 10 16 0 26 -4 22 -10 -3 -6
4 -10 17 -10 18 0 20 2 8 10 -11 7 -4 8 23 6 21 -2 40 -6 44 -9 3 -4 14 -2 24
3 12 7 19 6 22 -3 4 -8 8 -9 14 -1 5 7 31 8 72 4 47 -4 64 -3 68 7 3 7 13 13
22 13 14 0 14 -2 1 -10 -10 -7 19 -10 93 -10 88 0 107 3 107 15 0 19 25 18
-320 14 -162 -1 -350 -3 -417 -3 -68 -1 -123 -5 -123 -9 0 -5 -4 -5 -10 -2
-17 10 -11 45 8 46 12 1 9 4 -8 10 -23 8 -22 8 5 4 109 -19 102 -19 100 6 -2
17 -8 23 -21 22 -35 -5 -84 8 -84 21 0 20 42 28 59 11 12 -12 18 -12 44 1 36
19 46 11 22 -16 -10 -11 -14 -20 -9 -20 18 0 34 24 34 50 0 15 9 35 21 46 47
42 42 50 -27 44 -35 -3 -64 -3 -65 0 0 3 -2 17 -4 33 -2 18 4 37 21 56 24 29
32 65 15 75 -5 3 -8 -5 -8 -18 0 -14 -11 -38 -23 -56 -21 -29 -23 -30 -36 -13
-17 23 -17 33 -1 33 8 0 22 16 33 35 16 31 17 37 4 45 -8 5 -11 12 -8 16 4 4
3 15 -3 26 -12 23 -23 16 -24 -14 0 -15 -9 -24 -27 -29 -22 -6 -25 -4 -19 10
4 9 15 33 25 55 9 21 15 41 12 44 -3 3 -6 0 -6 -6 0 -7 -10 -12 -22 -12 -17 0
-19 3 -10 12 21 21 13 32 -8 13 -12 -10 -19 -24 -16 -31 5 -14 -21 -40 -31
-31 -3 4 -1 13 5 20 9 10 9 16 0 25 -16 16 -48 -3 -48 -29 0 -14 -5 -19 -17
-17 -18 4 -19 8 -8 43 6 18 5 18 -5 3 -13 -22 -30 -23 -30 -4 0 20 74 56 115
56 42 0 85 -17 107 -44 16 -19 18 -20 18 -3 0 14 7 18 29 15 29 -3 81 18 81
33 0 16 -18 18 -24 4 -6 -17 -86 -22 -86 -5 0 6 12 10 26 10 16 0 24 5 21 13
-2 6 -11 11 -21 9 -20 -4 -21 11 -1 28 23 19 18 37 -15 49 -16 5 -30 12 -30
15 0 3 12 1 26 -4 33 -13 44 -13 44 1 0 5 -14 15 -31 21 -16 6 -28 13 -25 15
3 3 30 -7 60 -21 59 -28 76 -51 29 -40 -27 7 -27 7 -10 -11 10 -9 16 -24 13
-31 -4 -11 1 -10 19 2 14 9 25 23 25 30 0 12 39 14 218 14 119 0 275 3 346 7
l128 6 -6 -649 c-3 -357 -8 -725 -11 -819 -5 -184 -12 -463 -20 -890 -4 -148
-8 -282 -11 -296 -5 -27 -44 -71 -60 -68 -25 4 -44 -3 -44 -17 0 -14 2 -14 16
1 12 12 19 13 24 5 6 -9 14 -8 33 5 49 32 55 73 61 420 4 176 8 392 11 480 10
335 15 640 21 1245 3 344 8 632 11 640 2 8 4 464 3 1013 0 742 -4 1003 -12
1017 -7 10 -23 22 -36 25 -36 9 -1793 34 -2837 41 -1221 8 -1526 9 -1528 8z
m1416 -31 c-7 -2 -19 -2 -25 0 -7 3 -2 5 12 5 14 0 19 -2 13 -5z m2160 -20
c-13 -2 -33 -2 -45 0 -13 2 -3 4 22 4 25 0 35 -2 23 -4z m429 -6 c383 -5 388
-6 388 -75 0 -20 3 -47 6 -59 l6 -23 -234 0 c-129 0 -472 3 -761 7 l-527 6 0
74 0 73 385 -5 c274 -4 385 -2 385 5 0 6 3 9 8 6 4 -2 159 -6 344 -9z m-7122
-241 c0 -3 -4 -8 -10 -11 -5 -3 -10 -1 -10 4 0 6 5 11 10 11 6 0 10 -2 10 -4z
m6548 -53 c-27 -2 -69 -2 -95 0 -27 2 -5 3 47 3 52 0 74 -1 48 -3z m-6613 -35
c-4 -17 -11 -63 -15 -102 l-7 -71 -2 71 c-1 63 13 134 26 134 2 0 1 -14 -2
-32z m6261 -5 c-11 -11 -17 4 -9 23 7 18 8 18 11 1 2 -10 1 -21 -2 -24z m424
-13 l0 -30 -90 0 c-49 0 -93 1 -97 3 -4 1 -8 14 -8 30 l-1 27 98 0 98 0 0 -30z
m-434 -48 c-11 -10 -15 4 -8 28 l7 25 3 -23 c2 -13 1 -26 -2 -30z m-88 -69
c-10 -2 -26 -2 -35 0 -10 3 -2 5 17 5 19 0 27 -2 18 -5z m82 3 c0 -11 -19 -15
-25 -6 -3 5 1 10 9 10 9 0 16 -2 16 -4z m318 -53 c-10 -2 -26 -2 -35 0 -10 3
-2 5 17 5 19 0 27 -2 18 -5z m-280 -16 c15 -17 -14 -61 -34 -53 -8 3 -14 4
-14 2 0 -3 -3 -11 -6 -19 -3 -10 1 -17 13 -20 15 -3 15 -4 -2 -3 -13 1 -21 9
-23 24 -3 18 2 23 27 28 31 6 44 34 17 34 -8 0 -18 5 -21 10 -9 15 31 12 43
-3z m402 -36 c0 -35 -3 -36 -109 -36 l-84 0 -3 33 -4 32 100 0 100 0 0 -29z
m-575 -121 c-3 -5 -14 -10 -23 -10 -15 0 -15 2 -2 10 20 13 33 13 25 0z m172
-80 c3 -10 2 -11 -4 -4 -4 7 -17 14 -28 17 -16 5 -15 5 4 4 14 -1 26 -9 28
-17z m401 -29 l3 -31 -100 0 -101 0 0 28 c0 16 2 31 4 33 2 2 46 3 98 2 l93
-2 3 -30z m-125 -168 c-7 -2 -19 -2 -25 0 -7 3 -2 5 12 5 14 0 19 -2 13 -5z
m121 -58 l0 -30 -97 -2 -97 -1 0 34 0 35 97 -3 97 -3 0 -30z m-6707 -62 c-3
-10 -5 -2 -5 17 0 19 2 27 5 18 2 -10 2 -26 0 -35z m6146 -60 c-7 -2 -19 -2
-25 0 -7 3 -2 5 12 5 14 0 19 -2 13 -5z m134 1 c-3 -3 -12 -4 -19 -1 -8 3 -5
6 6 6 11 1 17 -2 13 -5z m308 -34 c7 -21 0 -40 -16 -40 -5 0 -9 14 -9 30 0 34
15 40 25 10z m132 -32 c-3 -7 -5 -2 -5 12 0 14 2 19 5 13 2 -7 2 -19 0 -25z
m-6720 -20 c-3 -8 -6 -5 -6 6 -1 11 2 17 5 13 3 -3 4 -12 1 -19z m6641 -25 c4
-38 -11 -42 -47 -13 -19 17 -21 23 -11 36 23 26 55 13 58 -23z m-118 -4 c0
-16 -4 -28 -9 -25 -8 5 -3 56 5 56 2 0 4 -14 4 -31z m193 -4 c-7 -21 -13 -19
-13 6 0 11 4 18 10 14 5 -3 7 -12 3 -20z m-329 -20 c-4 -17 -10 -23 -16 -17
-6 6 -6 18 2 32 15 28 23 20 14 -15z m-186 3 c7 -7 12 -16 12 -20 0 -15 -15
-8 -28 12 -13 22 -3 27 16 8z m92 -3 c10 -12 10 -19 2 -27 -14 -14 -17 -11
-26 20 -8 25 5 29 24 7z m290 5 c0 -5 -7 -10 -16 -10 -8 0 -12 5 -9 10 3 6 10
10 16 10 5 0 9 -4 9 -10z m190 -15 c-13 -14 -26 -22 -29 -19 -3 3 5 14 19 24
34 27 38 25 10 -5z m-494 -60 c-9 -23 -26 -9 -26 23 0 24 1 25 16 10 10 -9 14
-24 10 -33z m352 21 c3 -12 -1 -17 -10 -14 -7 3 -15 13 -16 22 -3 12 1 17 10
14 7 -3 15 -13 16 -22z m155 -6 c-3 -11 -9 -23 -14 -26 -5 -3 -6 -16 -3 -30 4
-14 2 -24 -5 -24 -6 0 -14 11 -17 26 -5 18 0 32 17 50 27 29 29 29 22 4z
m-6786 -27 c-3 -10 -5 -4 -5 12 0 17 2 24 5 18 2 -7 2 -21 0 -30z m6893 17 c0
-5 -5 -10 -11 -10 -5 0 -7 5 -4 10 3 6 8 10 11 10 2 0 4 -4 4 -10z m-715 -45
c22 -19 35 -35 29 -35 -6 0 -28 16 -50 35 -21 19 -34 34 -29 34 6 0 28 -15 50
-34z m159 19 c9 -22 8 -24 -9 -24 -8 0 -15 9 -15 20 0 24 15 27 24 4z m53 -6
c-3 -8 -6 -5 -6 6 -1 11 2 17 5 13 3 -3 4 -12 1 -19z m-219 -93 c17 -64 16
-74 -8 -68 -11 3 -20 0 -20 -6 0 -6 5 -11 10 -11 12 0 33 -50 25 -58 -7 -7
-45 34 -45 48 0 5 -4 10 -10 10 -5 0 -10 9 -10 20 0 11 -4 20 -9 20 -5 0 -8
-13 -7 -30 2 -28 1 -29 -16 -13 -31 28 -32 53 -3 83 17 18 23 30 16 34 -12 8
-15 49 -5 59 15 15 70 -44 82 -88z m412 80 c0 -8 -4 -15 -10 -15 -5 0 -10 7
-10 15 0 8 5 15 10 15 6 0 10 -7 10 -15z m-40 -5 c0 -5 -5 -10 -11 -10 -5 0
-7 5 -4 10 3 6 8 10 11 10 2 0 4 -4 4 -10z m61 -31 l-10 -24 0 26 c-1 14 2 29
6 33 12 12 14 -9 4 -35z m-684 -1 c-3 -8 -6 -5 -6 6 -1 11 2 17 5 13 3 -3 4
-12 1 -19z m-5920 -25 c-3 -10 -5 -4 -5 12 0 17 2 24 5 18 2 -7 2 -21 0 -30z
m6543 -3 c0 -5 -4 -10 -10 -10 -5 0 -10 5 -10 10 0 6 5 10 10 10 6 0 10 -4 10
-10z m-285 -21 c11 -17 -1 -21 -15 -4 -8 9 -8 15 -2 15 6 0 14 -5 17 -11z
m301 -34 c-7 -18 -26 -20 -26 -2 0 18 24 41 28 27 2 -6 1 -17 -2 -25z m354 21
c0 -11 -19 -15 -25 -6 -3 5 1 10 9 10 9 0 16 -2 16 -4z m26 -33 c-10 -10 -19
5 -10 18 6 11 8 11 12 0 2 -7 1 -15 -2 -18z m88 -7 c-6 -16 -24 -23 -24 -8 0
10 22 33 27 28 2 -2 1 -11 -3 -20z m-7027 -48 c-2 -13 -4 -3 -4 22 0 25 2 35
4 23 2 -13 2 -33 0 -45z m6781 30 c-3 -7 -13 -15 -24 -17 -16 -3 -17 -1 -5 13
16 19 34 21 29 4z m152 -8 c0 -5 -2 -10 -4 -10 -3 0 -8 5 -11 10 -3 6 -1 10 4
10 6 0 11 -4 11 -10z m61 -33 c-16 -16 -26 0 -10 19 9 11 15 12 17 4 2 -6 -1
-17 -7 -23z m-121 14 c0 -5 -7 -12 -16 -15 -24 -9 -28 -7 -14 9 14 17 30 20
30 6z m360 -1 c0 -5 -4 -10 -10 -10 -5 0 -10 5 -10 10 0 6 5 10 10 10 6 0 10
-4 10 -10z m-7233 -67 c-3 -10 -5 -4 -5 12 0 17 2 24 5 18 2 -7 2 -21 0 -30z
m6767 13 c-6 -16 -24 -23 -24 -8 0 10 22 33 27 28 2 -2 1 -11 -3 -20z m106 15
c0 -6 -4 -13 -10 -16 -5 -3 -10 1 -10 9 0 9 5 16 10 16 6 0 10 -4 10 -9z m190
-1 c0 -5 -5 -10 -11 -10 -5 0 -7 5 -4 10 3 6 8 10 11 10 2 0 4 -4 4 -10z
m-1143 -22 c-3 -8 -6 -5 -6 6 -1 11 2 17 5 13 3 -3 4 -12 1 -19z m508 11 c11
-17 -1 -21 -15 -4 -8 9 -8 15 -2 15 6 0 14 -5 17 -11z m275 -7 c0 -5 -7 -9
-15 -9 -8 0 -12 4 -9 9 3 4 9 8 15 8 5 0 9 -4 9 -8z m136 -29 c-11 -11 -19 6
-11 24 8 17 8 17 12 0 3 -10 2 -21 -1 -24z m-660 17 c19 -8 24 -14 17 -21 -8
-8 -7 -19 3 -37 12 -24 12 -27 -2 -30 -8 -2 -21 1 -28 7 -9 7 -16 7 -24 -1 -7
-7 -12 -8 -12 -2 0 17 22 33 39 28 9 -2 4 2 -11 9 -20 9 -25 16 -18 27 5 8 6
18 4 22 -7 11 -1 10 32 -2z m364 -14 c0 -2 -8 -10 -17 -17 -16 -13 -17 -12 -4
4 13 16 21 21 21 13z m124 -17 c-8 -14 -24 -10 -24 6 0 9 6 12 15 9 8 -4 12
-10 9 -15z m-387 -15 c-9 -9 -28 6 -21 18 4 6 10 6 17 -1 6 -6 8 -13 4 -17z
m61 -28 c-6 -38 -24 -26 -25 16 -2 40 -1 42 13 23 8 -11 13 -29 12 -39z m522
17 c-1 -15 -30 -46 -37 -40 -3 4 2 16 12 27 19 21 25 24 25 13z m290 3 c0 -3
-4 -8 -10 -11 -5 -3 -10 -1 -10 4 0 6 5 11 10 11 6 0 10 -2 10 -4z m-714 -43
c1 -10 4 -27 8 -38 6 -16 4 -15 -12 5 -15 18 -18 28 -10 37 13 16 14 16 14 -4z
m-6439 -25 c-3 -7 -5 -2 -5 12 0 14 2 19 5 13 2 -7 2 -19 0 -25z m6163 6 c0
-8 -4 -12 -10 -9 -5 3 -10 1 -10 -6 0 -10 -3 -10 -12 -1 -10 10 -10 15 2 22
22 14 30 12 30 -6z m493 -18 c6 -16 -2 -28 -14 -20 -12 7 -11 34 0 34 5 0 11
-6 14 -14z m-533 -31 c0 -7 -7 -12 -15 -11 -22 3 -28 13 -21 32 5 13 9 14 21
4 8 -7 15 -18 15 -25z m130 21 c0 -3 -4 -8 -10 -11 -5 -3 -10 -1 -10 4 0 6 5
11 10 11 6 0 10 -2 10 -4z m10 -48 c0 -16 -3 -19 -11 -11 -6 6 -8 16 -5 22 11
17 16 13 16 -11z m-6263 -490 c-1 -95 -3 -20 -3 167 0 187 2 265 3 173 2 -92
2 -245 0 -340z m6581 443 c-10 -39 -42 -80 -54 -68 -7 7 18 67 27 67 4 0 9 9
12 20 3 11 10 20 15 20 6 0 6 -14 0 -39z m-439 -1 c11 -24 11 -24 -3 -6 -9 11
-16 24 -16 30 0 12 5 7 19 -24z m666 -6 c-23 -17 -32 -10 -15 11 7 8 17 12 23
8 6 -4 3 -11 -8 -19z m63 14 c-3 -7 -13 -15 -24 -17 -16 -3 -17 -1 -5 13 16
19 34 21 29 4z m-258 -2 c0 -3 -4 -8 -10 -11 -5 -3 -10 -1 -10 4 0 6 5 11 10
11 6 0 10 -2 10 -4z m290 -6 c0 -5 -4 -10 -10 -10 -5 0 -10 5 -10 10 0 6 5 10
10 10 6 0 10 -4 10 -10z m75 0 c3 -5 -1 -10 -9 -10 -8 0 -18 5 -21 10 -3 6 1
10 9 10 8 0 18 -4 21 -10z m-857 -36 c7 -14 8 -23 2 -19 -15 9 -32 45 -22 45
5 0 14 -12 20 -26z m-18 -76 c0 -10 -5 -18 -11 -18 -6 0 -9 7 -6 14 4 10 1 13
-9 9 -14 -5 -14 -3 -3 15 14 23 29 13 29 -20z m670 27 c0 -11 -11 -15 -37 -15
-49 0 -28 20 30 29 4 0 7 -6 7 -14z m90 5 c0 -5 -16 -10 -36 -10 -21 0 -33 4
-29 10 3 6 19 10 36 10 16 0 29 -4 29 -10z m43 -7 c-7 -2 -19 -2 -25 0 -7 3
-2 5 12 5 14 0 19 -2 13 -5z m-153 -43 c0 -5 -9 -10 -20 -10 -11 0 -20 5 -20
10 0 6 9 10 20 10 11 0 20 -4 20 -10z m37 -16 c-9 -9 -28 6 -21 18 4 6 10 6
17 -1 6 -6 8 -13 4 -17z m-102 -24 c2 -4 -4 -15 -15 -25 -18 -16 -23 -17 -46
-4 l-26 13 21 17 c20 16 56 16 66 -1z m195 -5 c-12 -14 -40 -10 -40 5 0 10 31
18 43 12 4 -2 3 -10 -3 -17z m-800 -28 c0 -10 4 -16 9 -12 18 10 23 -16 7 -34
-22 -24 -20 -34 5 -28 16 4 18 3 8 -9 -6 -8 -22 -14 -34 -14 -19 0 -22 4 -17
22 3 14 2 19 -6 14 -7 -4 -12 -3 -12 3 0 5 6 11 13 14 9 3 9 7 -1 19 -14 17
-13 35 3 54 12 14 25 -1 25 -29z m839 9 c10 -12 8 -13 -8 -9 -12 3 -21 9 -21
14 0 14 16 11 29 -5z m-136 -61 c1 -6 -15 -11 -35 -13 -41 -3 -48 4 -21 23 18
13 53 6 56 -10z m-83 -30 c17 -9 30 -18 30 -21 0 -8 -42 7 -65 22 -26 19 -1
18 35 -1z m-541 -38 l22 -24 -56 -37 c-55 -36 -75 -40 -33 -7 25 21 16 45 -13
36 -11 -4 -19 -2 -19 5 0 7 -7 5 -16 -5 -9 -9 -19 -13 -23 -10 -9 10 30 35 53
35 12 0 30 7 40 15 24 18 18 19 45 -8z m101 -37 c17 -10 13 -17 -15 -22 -12
-2 -21 3 -23 15 -4 18 14 22 38 7z m-53 -56 c-9 -10 -38 16 -31 28 4 6 13 4
22 -6 9 -8 13 -19 9 -22z m283 -5 c0 -13 -13 -11 -35 5 -18 13 -18 14 8 9 15
-3 27 -9 27 -14z m16 -61 c8 -28 29 -48 69 -68 l30 -15 -39 -3 c-21 -2 -43 1
-49 7 -15 15 -30 14 -17 -1 6 -7 18 -22 26 -33 9 -11 13 -14 9 -7 -7 14 -4 15
19 6 9 -3 16 -13 16 -21 0 -17 -52 -12 -76 8 -13 11 -14 9 -8 -17 4 -16 12
-32 18 -36 15 -10 70 -2 74 11 6 18 18 13 30 -14 18 -40 14 -53 -8 -25 -11 14
-20 20 -20 15 0 -6 5 -16 12 -23 6 -6 9 -15 5 -19 -4 -4 -13 -1 -19 5 -15 15
-29 15 -25 1 4 -21 -20 -20 -26 1 -4 16 -11 20 -33 16 -27 -5 -68 -45 -58 -56
3 -2 14 6 24 20 24 31 26 19 4 -16 -13 -19 -20 -22 -30 -13 -7 6 -21 8 -32 5
-15 -5 -18 -1 -17 21 1 16 0 20 -2 11 -2 -10 -9 -18 -14 -18 -5 0 -13 -10 -18
-22 -6 -18 -9 -19 -14 -5 -4 10 -2 17 4 17 6 0 9 6 6 14 -3 8 -1 17 6 20 8 3
7 9 -5 19 -10 8 -18 19 -18 26 0 6 -5 11 -11 11 -6 0 -9 6 -6 14 3 8 1 16 -4
18 -7 2 -6 13 1 32 6 16 8 42 5 58 -4 17 -2 28 4 28 6 0 11 -6 11 -14 0 -8 11
-13 28 -13 15 0 21 2 15 4 -19 7 -16 23 4 23 14 0 13 3 -5 16 -26 18 -29 42
-4 51 9 4 21 12 25 20 12 19 103 -29 113 -59z m-246 52 c-8 -5 -19 -10 -25
-10 -5 0 -3 5 5 10 8 5 20 10 25 10 6 0 3 -5 -5 -10z m396 -46 c-12 -25 -29
-34 -20 -10 3 8 -5 23 -17 34 l-22 21 35 -11 c32 -10 34 -12 24 -34z m-73 19
c2 -5 7 -20 11 -35 5 -22 3 -25 -13 -21 -12 3 -18 14 -19 34 -1 27 11 39 21
22z m-447 -18 c-11 -8 -27 -15 -35 -15 -13 1 -12 4 3 15 11 8 27 15 35 15 13
-1 12 -4 -3 -15z m-491 -19 c11 -8 24 -12 30 -9 7 2 18 -3 25 -12 10 -12 10
-15 -4 -15 -21 0 -22 -43 -1 -60 8 -7 15 -19 15 -26 0 -18 3 -18 50 6 l40 20
21 -21 c18 -18 19 -23 6 -42 -20 -31 -54 -33 -84 -5 l-26 23 24 -41 c13 -23
28 -40 35 -37 15 5 124 -113 124 -135 -1 -11 -24 7 -64 51 -55 59 -65 66 -76
52 -11 -14 -7 -19 13 -16 11 2 9 -17 -3 -24 -15 -9 -42 15 -36 31 3 8 -1 17
-9 22 -8 4 -16 23 -18 42 -3 22 -10 36 -20 38 -9 2 -25 28 -37 60 -11 31 -27
69 -36 85 -12 22 -13 27 -1 27 7 0 22 -6 32 -14z m1097 -28 c-7 -7 -12 -8 -12
-2 0 14 12 26 19 19 2 -3 -1 -11 -7 -17z m-488 -78 c22 -22 27 -33 19 -41 -7
-7 -8 -20 -3 -33 6 -17 4 -25 -11 -34 -10 -7 -19 -8 -19 -3 0 5 -10 13 -22 17
-13 3 -30 12 -38 20 -10 9 -20 10 -30 4 -12 -8 -10 -10 8 -10 15 0 22 -6 22
-19 0 -10 7 -22 16 -25 22 -8 26 -8 19 4 -3 6 -1 10 4 10 15 0 14 -12 -5 -38
-8 -12 -23 -22 -32 -22 -16 1 -16 1 1 11 22 13 22 29 -1 29 -10 0 -24 9 -32
20 -8 11 -20 20 -27 20 -7 0 -13 6 -13 14 0 8 -7 21 -14 29 -13 13 -13 17 0
33 14 18 15 18 9 -3 -5 -18 -1 -22 22 -25 18 -2 34 4 46 16 16 18 18 18 35 3
14 -13 21 -14 30 -5 9 9 7 17 -10 35 -32 34 -8 27 26 -7z m406 16 c0 -8 7 -16
15 -20 10 -3 15 1 15 11 0 15 1 15 18 0 20 -19 47 -85 37 -95 -3 -3 -15 -1
-25 6 -15 9 -18 9 -14 -2 6 -17 -19 -38 -38 -31 -37 14 -69 115 -37 115 5 0 9
7 9 15 0 8 5 15 10 15 6 0 10 -6 10 -14z m-57 -3 c-7 -2 -19 -2 -25 0 -7 3 -2
5 12 5 14 0 19 -2 13 -5z m250 -113 c-20 -23 -46 -26 -62 -6 -10 12 -6 15 26
19 21 2 41 4 45 5 4 1 0 -7 -9 -18z m-48 -40 c3 -6 -1 -13 -10 -16 -16 -7 -47
24 -39 38 6 9 40 -7 49 -22z m-165 11 c0 -13 -29 -35 -37 -28 -7 8 15 37 28
37 5 0 9 -4 9 -9z m-180 -71 c0 -5 -5 -10 -11 -10 -5 0 -7 5 -4 10 3 6 8 10
11 10 2 0 4 -4 4 -10z m210 -11 c0 -5 -7 -9 -15 -9 -15 0 -20 12 -9 23 8 8 24
-1 24 -14z m-140 5 c0 -2 -9 -8 -20 -14 -20 -11 -44 -5 -36 8 4 7 56 13 56 6z
m-785 -14 c3 -5 1 -10 -4 -10 -6 0 -11 5 -11 10 0 6 2 10 4 10 3 0 8 -4 11
-10z m552 -2 c8 20 23 14 23 -9 0 -15 -5 -19 -15 -15 -17 6 -21 -19 -5 -29 16
-10 12 -22 -9 -28 -14 -3 -18 -1 -14 9 3 8 -1 14 -11 14 -9 0 -16 4 -16 8 0 5
-10 14 -22 19 -22 11 -22 11 -3 18 11 3 27 10 35 14 9 5 18 4 23 -3 6 -8 10
-8 14 2z m131 -5 c2 -8 -5 -13 -17 -13 -12 0 -21 6 -21 16 0 18 31 15 38 -3z
m97 -12 c-3 -6 9 -7 30 -4 56 9 39 -18 -27 -43 -10 -3 -18 -10 -18 -15 0 -16
-47 -10 -61 8 -13 15 -11 16 12 10 30 -8 55 13 45 38 -3 9 0 15 10 15 8 0 13
-4 9 -9z m-325 -11 c0 -5 -5 -10 -11 -10 -5 0 -7 5 -4 10 3 6 8 10 11 10 2 0
4 -4 4 -10z m287 -22 c-3 -8 -6 -5 -6 6 -1 11 2 17 5 13 3 -3 4 -12 1 -19z
m-626 -83 c26 -49 57 -115 69 -145 12 -30 26 -64 32 -74 6 -11 14 -32 18 -47
7 -23 5 -28 -13 -33 -25 -6 -37 8 -37 44 0 14 -9 31 -20 38 -16 10 -18 16 -10
32 15 28 12 41 -7 38 -12 -2 -19 4 -21 20 -2 12 -8 19 -14 16 -5 -3 -16 3 -24
15 -8 12 -24 21 -35 21 -10 0 -19 5 -19 11 0 6 7 9 15 5 19 -7 19 -2 0 34 -18
35 -25 39 -18 10 6 -24 -4 -26 -29 -3 -23 20 -24 48 -2 39 10 -4 14 -2 10 6
-3 7 -9 21 -12 31 -4 9 -10 17 -15 17 -5 0 -9 4 -9 8 0 4 21 8 47 7 l47 0 47
-90z m489 85 c0 -5 -5 -10 -11 -10 -5 0 -7 5 -4 10 3 6 8 10 11 10 2 0 4 -4 4
-10z m-135 -10 c3 -5 -1 -10 -9 -10 -9 0 -16 5 -16 10 0 6 4 10 9 10 6 0 13
-4 16 -10z m215 -12 c0 -13 -23 -5 -28 10 -2 7 2 10 12 6 9 -3 16 -11 16 -16z
m-52 -13 c-3 -3 -9 2 -12 12 -6 14 -5 15 5 6 7 -7 10 -15 7 -18z m-348 0 c0
-8 -7 -15 -15 -15 -26 0 -18 20 13 29 1 1 2 -6 2 -14z m768 -2 c-10 -2 -26 -2
-35 0 -10 3 -2 5 17 5 19 0 27 -2 18 -5z m160 0 c-21 -2 -57 -2 -80 0 -24 2
-7 4 37 4 44 0 63 -2 43 -4z m-708 -33 c7 0 10 -3 7 -7 -10 -10 -57 18 -50 30
4 6 11 3 18 -6 7 -10 18 -17 25 -17z m-6243 -62 c-2 -18 -4 -6 -4 27 0 33 2
48 4 33 2 -15 2 -42 0 -60z m6265 33 c2 -5 21 -6 45 -2 38 7 43 6 62 -19 17
-24 18 -27 3 -26 -9 0 -23 7 -30 14 -8 7 -18 10 -23 7 -14 -10 -10 -35 7 -42
12 -4 11 -8 -8 -17 -13 -6 -23 -19 -23 -28 0 -10 -6 -23 -13 -30 -20 -20 -15
-37 10 -30 14 3 19 2 14 -6 -4 -7 -14 -12 -22 -12 -19 0 -18 -26 1 -34 21 -8
19 -27 -2 -19 -10 3 -28 15 -40 26 -20 18 -23 18 -23 4 0 -9 -7 -17 -15 -17
-18 0 -18 1 -5 36 9 24 9 25 -5 14 -13 -11 -15 -9 -15 12 0 13 -6 32 -13 43
-15 23 -17 116 -2 112 6 -1 10 -15 11 -31 0 -38 15 -43 40 -14 15 18 15 20 2
9 -16 -12 -18 -11 -18 16 0 16 3 33 7 36 10 10 51 8 55 -2z m178 -67 c0 -9 -5
-14 -12 -12 -18 6 -21 28 -4 28 9 0 16 -7 16 -16z m-486 -22 c2 -4 -5 -9 -17
-9 -17 -2 -19 0 -7 7 18 12 18 12 24 2z m670 -4 c-5 -9 -2 -9 9 1 14 11 17 11
17 0 0 -19 -36 -40 -55 -33 -20 8 -19 21 3 33 24 14 35 13 26 -1z m-280 -43
c-18 -14 -18 -14 1 -15 14 0 16 -3 8 -11 -16 -16 -43 -4 -43 19 0 10 10 24 23
29 28 13 36 -3 11 -22z m142 -20 c-3 -8 -1 -15 4 -15 6 0 10 5 10 10 0 6 9 10
20 10 15 0 20 -7 20 -27 0 -28 -1 -28 -65 -30 -36 0 -65 2 -65 6 0 15 35 49
55 54 11 2 22 5 24 6 2 0 1 -6 -3 -14z m159 -40 c5 -33 2 -44 -14 -59 -19 -17
-20 -17 -30 3 -9 15 -7 28 10 58 11 21 14 29 5 19 -21 -26 -30 -15 -10 13 20
28 30 19 39 -34z m97 24 c-4 -28 -6 -30 -46 -27 -34 2 -41 7 -42 24 -1 17 5
22 25 22 14 0 32 -5 40 -12 12 -9 13 -8 8 7 -4 11 -2 17 7 17 8 0 11 -10 8
-31z m-163 -11 c-1 -7 -5 -24 -9 -38 -7 -22 -8 -21 -9 13 -1 20 4 37 9 37 6 0
10 -6 9 -12z m-219 -8 c0 -5 -7 -10 -16 -10 -8 0 -12 5 -9 10 3 6 10 10 16 10
5 0 9 -4 9 -10z m-241 -26 c2 -2 -6 -4 -18 -4 -17 0 -21 -4 -17 -15 3 -8 1
-15 -4 -15 -6 0 -10 4 -10 10 0 5 -12 16 -27 25 -27 15 -27 15 22 9 28 -4 52
-8 54 -10z m224 -8 c9 -7 17 -24 17 -37 0 -16 10 -30 29 -40 22 -13 31 -27 36
-58 4 -22 11 -43 16 -47 24 -14 5 -21 -20 -7 -19 11 -27 23 -24 35 7 24 -25
57 -37 38 -6 -10 -10 -6 -15 16 -4 16 -8 35 -11 42 -2 6 2 12 8 12 6 0 2 10
-10 23 -33 35 -26 51 11 23z m97 -16 c16 0 30 -7 34 -15 7 -18 -13 -28 -46
-23 -18 2 -24 10 -25 33 -1 17 0 24 3 18 3 -7 18 -13 34 -13z m88 13 c-10 -2
-28 -2 -40 0 -13 2 -5 4 17 4 22 1 32 -1 23 -4z m166 -5 c5 -10 7 -10 12 0 3
6 10 12 15 12 5 0 3 -11 -3 -25 -6 -14 -18 -25 -25 -25 -8 0 -11 5 -7 12 5 8
2 9 -9 5 -19 -7 -20 -6 -11 17 7 19 20 21 28 4z m66 -7 c0 -12 -20 -25 -27
-18 -7 7 6 27 18 27 5 0 9 -4 9 -9z m-709 -14 c-1 -12 -15 -9 -19 4 -3 6 1 10
8 8 6 -3 11 -8 11 -12z m129 3 c0 -5 -4 -10 -10 -10 -5 0 -10 5 -10 10 0 6 5
10 10 10 6 0 10 -4 10 -10z m360 -10 c0 -13 -7 -20 -20 -20 -10 0 -24 9 -30
20 -10 18 -8 20 20 20 23 0 30 -4 30 -20z m-519 -37 c-8 -15 -10 -15 -11 -2 0
17 10 32 18 25 2 -3 -1 -13 -7 -23z m619 2 c0 -14 -4 -25 -10 -25 -11 0 -14
33 -3 43 11 11 13 8 13 -18z m242 -21 c-4 -21 -10 -24 -46 -24 -23 0 -48 -6
-56 -12 -7 -7 -1 3 13 23 15 20 25 38 23 40 -3 2 12 3 33 1 34 -3 37 -6 33
-28z m49 -3 c-10 -18 -31 -29 -31 -16 0 18 25 54 33 46 5 -5 4 -17 -2 -30z
m65 27 c-4 6 -3 12 2 12 13 0 23 -27 16 -45 -10 -25 -41 -18 -46 10 -6 31 1
38 20 22 13 -9 14 -9 8 1z m92 5 c-10 -2 -26 -2 -35 0 -10 3 -2 5 17 5 19 0
27 -2 18 -5z m65 0 c-7 -2 -21 -2 -30 0 -10 3 -4 5 12 5 17 0 24 -2 18 -5z
m-863 -29 c0 -20 4 -25 16 -20 8 3 12 2 9 -4 -12 -20 -33 -9 -37 20 -3 17 -1
30 4 30 4 0 8 -12 8 -26z m210 17 c0 -5 3 -16 6 -25 4 -11 0 -16 -14 -16 -24
0 -53 29 -31 31 8 1 3 5 -11 9 -22 7 -21 8 13 9 20 1 37 -3 37 -8z m267 -3 c5
12 33 17 33 5 0 -12 -33 -43 -47 -43 -8 0 -13 11 -13 28 0 22 2 24 11 12 8
-11 12 -12 16 -2z m354 -19 c-32 -26 -101 -24 -93 3 3 15 15 18 61 18 l56 -1
-24 -20z m-1270 -16 c-8 -15 -10 -15 -11 -2 0 17 10 32 18 25 2 -3 -1 -13 -7
-23z m139 17 c0 -5 -2 -10 -4 -10 -3 0 -8 5 -11 10 -3 6 -1 10 4 10 6 0 11 -4
11 -10z m958 -16 c-7 -15 -14 -21 -16 -15 -2 7 2 18 8 26 18 22 21 18 8 -11z
m-488 -9 c7 -8 16 -12 21 -9 5 3 9 0 9 -5 0 -6 -4 -11 -9 -11 -5 0 -11 -7 -13
-16 -2 -11 -9 -5 -20 20 -18 36 -11 49 12 21z m-471 -27 c-27 -10 -35 -4 -18
15 10 11 17 12 27 4 11 -9 9 -13 -9 -19z m728 -3 c-4 -8 -11 -15 -17 -15 -7 0
-7 6 0 21 13 23 26 19 17 -6z m560 19 c-3 -3 -12 -4 -19 -1 -8 3 -5 6 6 6 11
1 17 -2 13 -5z m-404 -39 c-3 -9 -19 -15 -40 -15 -30 0 -34 2 -23 14 11 15 48
25 62 19 4 -2 5 -10 1 -18z m137 5 c0 -17 -7 -20 -39 -20 -34 0 -38 3 -34 20
4 15 14 20 39 20 27 0 34 -4 34 -20z m47 3 c-9 -9 -19 -14 -23 -11 -10 10 6
28 24 28 15 0 15 -1 -1 -17z m-257 2 c0 -2 -13 -11 -30 -20 -30 -16 -40 -9
-18 13 12 12 48 17 48 7z m-294 -32 c-10 -10 -19 5 -10 18 6 11 8 11 12 0 2
-7 1 -15 -2 -18z m-506 1 c0 -8 -5 -12 -10 -9 -6 4 -8 11 -5 16 9 14 15 11 15
-7z m51 -17 c-10 -9 -11 -8 -5 6 3 10 9 15 12 12 3 -3 0 -11 -7 -18z m373 4
c3 -5 -1 -14 -9 -21 -13 -10 -15 -9 -15 9 0 21 14 28 24 12z m346 -26 c-7 -8
-17 -15 -22 -15 -6 0 -5 7 2 15 7 8 17 15 22 15 6 0 5 -7 -2 -15z m89 -14
c-13 -11 -26 -17 -29 -14 -3 2 6 13 19 24 13 11 26 17 29 15 3 -3 -6 -14 -19
-25z m126 9 c-21 -23 -75 -27 -75 -6 0 14 13 18 69 24 24 2 24 2 6 -18z m140
0 c-17 -11 -47 -20 -69 -20 -38 0 -39 0 -21 20 14 15 31 20 69 20 l51 0 -30
-20z m-865 1 c0 -5 -7 -11 -15 -15 -15 -5 -20 5 -8 17 9 10 23 9 23 -2z m-117
-41 c-3 -11 -7 -20 -9 -20 -2 0 -4 9 -4 20 0 11 4 20 9 20 5 0 7 -9 4 -20z
m739 -12 c-15 -15 -26 -4 -18 18 5 13 9 15 18 6 9 -9 9 -15 0 -24z m-382 -4
c0 -8 -4 -12 -10 -9 -5 3 -10 13 -10 21 0 8 5 12 10 9 6 -3 10 -13 10 -21z
m822 1 c-2 -14 -7 -26 -11 -26 -3 -1 -28 -3 -54 -4 -39 -2 -47 1 -45 14 2 11
16 17 48 19 25 2 49 7 55 13 13 13 13 12 7 -16z m-862 -1 c0 -8 -5 -12 -10 -9
-6 4 -8 11 -5 16 9 14 15 11 15 -7z m537 0 c-3 -3 -12 -4 -19 -1 -8 3 -5 6 6
6 11 1 17 -2 13 -5z m196 -12 c-3 -14 -17 -18 -74 -21 -69 -2 -70 -2 -59 18 9
18 20 21 74 21 57 0 64 -2 59 -18z m-983 -20 c0 -8 -34 -31 -47 -32 -8 0 -8 6
0 24 7 15 17 21 29 18 10 -2 18 -7 18 -10z m142 -32 c-10 -17 -9 -31 3 -75 9
-29 25 -65 36 -79 20 -25 18 -46 -3 -46 -5 0 -8 7 -5 14 4 9 1 13 -6 10 -7 -2
-30 11 -51 31 -21 19 -56 40 -77 47 -27 8 -39 17 -39 30 0 10 -7 18 -15 18
-21 0 -19 13 5 28 12 7 18 18 15 25 -4 7 1 3 10 -8 15 -19 17 -19 29 -2 18 23
29 22 21 -3 -4 -14 -2 -20 9 -20 8 0 22 -3 32 -7 13 -5 16 -3 11 10 -4 10 -2
29 4 44 7 20 12 24 22 14 9 -9 9 -16 -1 -31z m688 23 c0 -15 -98 -63 -114 -57
-18 7 -21 20 -6 29 6 3 10 2 10 -4 0 -5 19 1 43 14 44 24 67 30 67 18z m-204
-31 c-8 -9 -19 -13 -22 -9 -10 9 16 38 28 31 6 -4 4 -13 -6 -22z m310 1 c-11
-11 -75 -13 -81 -3 -4 6 14 10 41 10 26 0 44 -3 40 -7z m154 -7 c0 -23 -68
-32 -98 -13 -23 15 -1 27 49 27 36 0 49 -4 49 -14z m-160 -37 c-7 -11 -14 -19
-16 -16 -7 7 7 37 17 37 6 0 5 -9 -1 -21z m-995 1 c-3 -5 -12 -10 -18 -10 -7
0 -6 4 3 10 19 12 23 12 15 0z m310 -30 c-3 -6 -10 -10 -16 -10 -10 0 -12 33
-2 44 9 9 26 -22 18 -34z m646 22 c-12 -23 -41 -48 -41 -35 0 5 7 19 16 31 19
27 39 30 25 4z m-1231 -6 c0 -3 -4 -8 -10 -11 -5 -3 -10 -1 -10 4 0 6 5 11 10
11 6 0 10 -2 10 -4z m1300 -21 c0 -16 -27 -32 -37 -21 -7 7 16 36 28 36 5 0 9
-7 9 -15z m40 11 c0 -3 -4 -8 -10 -11 -5 -3 -10 -1 -10 4 0 6 5 11 10 11 6 0
10 -2 10 -4z m40 -4 c0 -10 -21 -32 -31 -32 -4 0 -5 9 -2 20 5 19 33 29 33 12z
m-220 -22 c0 -11 -42 -30 -66 -30 -21 0 -17 16 9 28 29 14 57 15 57 2z m39
-69 c-33 -53 -56 -57 -43 -6 6 23 62 71 71 61 2 -2 -11 -27 -28 -55z m91 25
c0 -22 -17 -36 -41 -36 -27 0 -29 2 -19 20 9 17 60 30 60 16z m-155 -16 c3 -5
1 -10 -4 -10 -6 0 -11 5 -11 10 0 6 2 10 4 10 3 0 8 -4 11 -10z m-75 -19 c0
-11 -39 -25 -47 -18 -3 3 -2 10 2 16 8 13 45 15 45 2z m48 -23 c7 -7 12 -25
12 -40 0 -22 -6 -31 -26 -39 -30 -11 -43 -4 -26 13 21 21 13 31 -18 25 -22 -5
-30 -3 -30 8 0 10 11 15 33 16 17 0 26 3 19 6 -14 6 -6 23 12 23 6 0 17 -5 24
-12z m-152 -25 c-10 -10 -19 5 -10 18 6 11 8 11 12 0 2 -7 1 -15 -2 -18z m44
-17 c0 -3 -4 -8 -10 -11 -5 -3 -10 -1 -10 4 0 6 5 11 10 11 6 0 10 -2 10 -4z
m-512 -40 c-2 -20 -5 -23 -20 -15 -23 12 -23 26 0 32 9 3 18 5 19 6 2 0 2 -10
1 -23z m482 15 c0 -9 -41 -23 -48 -16 -2 2 -1 8 3 14 8 13 45 15 45 2z m-80
-21 c0 -5 -4 -10 -10 -10 -5 0 -10 5 -10 10 0 6 5 10 10 10 6 0 10 -4 10 -10z
m410 -11 c0 -13 -47 -30 -64 -23 -18 7 -10 32 12 36 23 5 52 -2 52 -13z m-410
-75 c0 -8 -5 -12 -10 -9 -6 4 -8 11 -5 16 9 14 15 11 15 -7z m-30 -89 c-13
-16 -40 -20 -40 -7 0 14 12 22 33 22 16 0 17 -3 7 -15z m460 5 c8 -5 11 -13 6
-17 -5 -4 -10 -3 -13 3 -2 6 -17 8 -35 6 -21 -3 -29 -1 -24 7 9 13 45 14 66 1z
m-310 -30 c0 -5 7 -10 15 -10 10 0 7 -8 -11 -27 -27 -30 -40 -26 -28 9 4 13 7
26 6 31 -1 4 3 7 8 7 6 0 10 -4 10 -10z m-890 -10 c0 -5 -4 -10 -9 -10 -6 0
-13 5 -16 10 -3 6 1 10 9 10 9 0 16 -4 16 -10z m1290 0 c-20 -13 -40 -13 -40
0 0 6 12 10 28 10 21 0 24 -2 12 -10z m-445 -30 c-3 -5 -10 -10 -16 -10 -5 0
-9 5 -9 10 0 6 7 10 16 10 8 0 12 -4 9 -10z m-85 -30 c0 -5 -4 -10 -10 -10 -5
0 -10 5 -10 10 0 6 5 10 10 10 6 0 10 -4 10 -10z m-1276 -16 c8 -21 3 -26 -18
-18 -9 3 -16 12 -16 20 0 19 26 18 34 -2z m1321 6 c3 -5 -1 -10 -10 -10 -9 0
-13 5 -10 10 3 6 8 10 10 10 2 0 7 -4 10 -10z m65 -8 c0 -14 -39 -46 -47 -39
-3 4 2 16 13 26 20 21 34 26 34 13z m310 -42 c0 -5 -5 -10 -11 -10 -5 0 -7 5
-4 10 3 6 8 10 11 10 2 0 4 -4 4 -10z m-1760 -19 c0 -11 -56 -34 -71 -29 -8 3
-6 10 6 22 10 9 24 15 31 12 8 -3 14 -1 14 5 0 6 5 7 10 4 6 -3 10 -10 10 -14z
m-5383 -13 c-3 -8 -6 -5 -6 6 -1 11 2 17 5 13 3 -3 4 -12 1 -19z m5513 10 c0
-7 12 -25 27 -41 17 -17 21 -26 11 -22 -11 4 -20 -1 -29 -16 l-12 -23 -9 23
c-5 13 -6 26 -3 29 3 3 5 0 5 -7 0 -7 5 -9 11 -6 7 5 3 15 -11 30 -12 13 -19
28 -15 34 8 15 25 14 25 -1z m1200 2 c0 -5 -4 -10 -10 -10 -5 0 -10 5 -10 10
0 6 5 10 10 10 6 0 10 -4 10 -10z m-1425 -10 c-3 -5 -10 -10 -16 -10 -5 0 -9
5 -9 10 0 6 7 10 16 10 8 0 12 -4 9 -10z m1515 -19 c0 -5 -7 -12 -16 -15 -24
-9 -28 -7 -14 9 14 17 30 20 30 6z m316 -7 c-3 -9 -6 -18 -6 -20 0 -2 -9 -4
-20 -4 -11 0 -20 5 -20 10 0 6 7 10 15 10 8 0 15 5 15 10 0 6 5 10 11 10 6 0
8 -7 5 -16z m-1856 -2 c0 -15 -38 -44 -49 -37 -15 9 -14 32 2 38 20 9 47 8 47
-1z m2050 -19 c9 -8 -33 -33 -55 -33 -12 0 -26 5 -33 12 -24 24 62 44 88 21z
m47 1 c-3 -3 -12 -4 -19 -1 -8 3 -5 6 6 6 11 1 17 -2 13 -5z m-167 -74 c0 -5
-4 -10 -10 -10 -5 0 -10 5 -10 10 0 6 5 10 10 10 6 0 10 -4 10 -10z m-210 -4
c0 -3 -4 -8 -10 -11 -5 -3 -10 -1 -10 4 0 6 5 11 10 11 6 0 10 -2 10 -4z m158
-8 c-3 -7 -13 -15 -24 -17 -16 -3 -17 -1 -5 13 16 19 34 21 29 4z m127 -13
c39 -24 39 -24 13 -25 -16 0 -28 4 -28 9 0 5 -10 11 -22 13 -23 3 -38 28 -16
28 7 0 31 -11 53 -25z m-345 5 c8 -5 11 -12 7 -16 -4 -4 -15 0 -24 9 -18 18
-8 23 17 7z m-125 -40 c3 -5 1 -10 -4 -10 -6 0 -11 5 -11 10 0 6 2 10 4 10 3
0 8 -4 11 -10z m-1382 -44 c14 5 17 0 17 -29 0 -19 -6 -46 -13 -60 -12 -24
-127 -117 -144 -117 -4 0 2 7 13 15 16 12 16 14 3 15 -9 0 -23 -7 -30 -16 -7
-9 -22 -20 -34 -25 -20 -8 -20 -8 3 -15 12 -3 22 -8 22 -11 0 -10 -56 -73 -66
-73 -16 0 -58 -48 -59 -69 -1 -18 0 -18 29 2 17 12 33 25 34 30 8 17 20 5 18
-18 -1 -19 -7 -25 -23 -25 -12 0 -29 -10 -38 -22 -13 -20 -17 -21 -25 -8 -8
13 -10 12 -10 -2 0 -10 -4 -18 -10 -18 -15 0 -12 29 5 46 17 18 9 45 -14 42
-13 -2 -16 5 -14 39 4 91 58 158 178 218 39 20 70 39 70 43 0 4 8 6 18 5 9 -2
17 4 17 12 0 8 5 15 10 15 6 0 10 10 10 23 0 15 3 18 8 9 5 -7 16 -10 25 -6z
m1762 4 c3 -5 1 -10 -4 -10 -6 0 -11 5 -11 10 0 6 2 10 4 10 3 0 8 -4 11 -10z
m-75 -20 c34 0 41 -3 32 -12 -14 -14 -126 -18 -138 -5 -12 12 18 28 41 22 11
-2 40 -5 65 -5z m-225 -20 c-3 -5 -11 -10 -16 -10 -6 0 -7 5 -4 10 3 6 11 10
16 10 6 0 7 -4 4 -10z m55 -20 c0 -5 -7 -10 -16 -10 -8 0 -12 5 -9 10 3 6 10
10 16 10 5 0 9 -4 9 -10z m-6596 -50 c3 0 3 8 0 18 -4 10 -2 13 3 7 22 -27 95
-76 148 -100 33 -14 74 -32 90 -40 l30 -14 -35 6 c-19 3 -40 10 -46 14 -12 9
-46 -25 -36 -37 4 -4 -5 -4 -20 0 -32 7 -58 -1 -58 -20 0 -8 -10 -14 -24 -14
-13 0 -27 -7 -30 -16 -3 -9 -12 -14 -19 -11 -6 2 -17 -2 -22 -10 -11 -15 -65
-28 -65 -15 0 4 -8 8 -19 8 -12 0 -17 -6 -13 -18 7 -29 -52 -23 -94 9 -40 30
-67 70 -40 60 9 -4 16 -3 16 2 0 4 8 17 18 28 54 63 71 87 66 95 -3 4 0 8 6 8
7 0 10 7 6 15 -3 8 -1 15 4 15 6 0 10 -6 11 -12 0 -7 5 -1 11 15 5 15 14 27
19 27 6 0 7 5 3 12 -4 6 -3 8 2 5 6 -3 16 -2 24 3 10 6 21 1 37 -16 12 -13 24
-24 27 -24z m6686 -31 c11 -19 9 -20 -42 -17 -31 2 -51 7 -48 13 3 5 -8 13
-25 16 -21 5 -9 7 37 8 58 1 69 -2 78 -20z m-1529 -13 c16 -19 16 -19 47 2 32
23 54 30 35 11 -6 -6 -9 -17 -7 -24 3 -7 -7 -17 -24 -23 -23 -8 -33 -7 -45 5
-12 13 -18 13 -38 1 -13 -7 -27 -17 -30 -21 -3 -4 -11 4 -17 18 -8 18 -9 24
-1 20 6 -4 17 2 25 14 17 24 32 23 55 -3z m1309 4 c0 -5 -2 -10 -4 -10 -3 0
-8 5 -11 10 -3 6 -1 10 4 10 6 0 11 -4 11 -10z m-1097 -25 c-3 -8 -9 -15 -14
-15 -10 0 -12 24 -3 33 11 11 24 -3 17 -18z m49 -17 c-5 -7 -11 -16 -11 -20
-1 -9 -11 -11 -11 -3 0 3 3 17 6 31 5 17 10 22 17 15 7 -7 7 -14 -1 -23z m825
17 c0 -8 -6 -15 -13 -15 -15 0 -26 15 -17 24 12 11 30 6 30 -9z m103 1 c0 -7
-7 -19 -15 -26 -10 -8 -13 -20 -9 -34 6 -19 5 -19 -10 -7 -15 13 -15 15 0 32
21 24 10 37 -14 18 -10 -8 -7 -4 6 9 26 25 42 28 42 8z m455 -11 c60 2 85 -7
85 -29 0 -8 -28 -13 -91 -13 -50 -1 -93 -4 -96 -7 -3 -2 -16 5 -30 17 l-25 22
29 6 c15 3 35 0 43 -6 32 -25 46 -29 28 -8 -10 11 -18 24 -18 29 0 5 4 4 8 -2
4 -6 34 -10 67 -9z m-1785 -15 c0 -5 -4 -10 -10 -10 -5 0 -10 5 -10 10 0 6 5
10 10 10 6 0 10 -4 10 -10z m1420 0 c0 -5 -5 -10 -11 -10 -5 0 -7 5 -4 10 3 6
8 10 11 10 2 0 4 -4 4 -10z m-1376 -25 c-9 -14 -20 -25 -24 -25 -4 0 -12 -11
-18 -25 -7 -15 -17 -23 -26 -19 -11 4 -13 0 -9 -18 6 -21 5 -22 -10 -9 -15 12
-17 11 -17 -8 0 -11 -4 -21 -9 -21 -18 0 -22 39 -6 63 8 13 12 26 9 30 -14 13
25 38 50 31 19 -4 28 -2 32 10 3 9 15 16 25 16 18 0 19 -1 3 -25z m1096 15 c0
-5 -4 -10 -10 -10 -5 0 -10 5 -10 10 0 6 5 10 10 10 6 0 10 -4 10 -10z m303
-27 c9 -5 -1 -23 -12 -23 -4 0 -19 9 -32 21 l-24 21 30 -8 c17 -4 33 -9 38
-11z m132 7 c3 -5 -3 -10 -14 -10 -12 0 -21 5 -21 10 0 6 6 10 14 10 8 0 18
-4 21 -10z m-303 -18 c-7 -2 -10 -8 -6 -13 3 -5 -5 -9 -17 -9 -21 0 -22 1 -4
20 10 11 22 17 28 13 8 -5 7 -8 -1 -11z m318 -24 c0 -13 -23 -5 -28 10 -2 7 2
10 12 6 9 -3 16 -11 16 -16z m-157 -32 c-46 -42 -75 -46 -37 -5 21 23 16 24
-22 4 -39 -20 -66 -20 -40 0 10 8 23 12 28 9 4 -3 11 1 14 9 4 12 13 13 34 7
21 -6 32 -4 41 6 6 8 16 14 21 14 5 0 -12 -20 -39 -44z m-283 3 c0 -6 -4 -7
-10 -4 -5 3 -10 11 -10 16 0 6 5 7 10 4 6 -3 10 -11 10 -16z m373 15 c-7 -3
-9 -12 -6 -20 3 -9 -2 -14 -16 -14 -15 0 -19 -4 -14 -16 4 -12 2 -15 -8 -12
-24 8 -20 32 8 50 16 9 33 16 38 16 6 0 5 -2 -2 -4z m47 -18 c0 -3 -4 -8 -10
-11 -5 -3 -10 -1 -10 4 0 6 5 11 10 11 6 0 10 -2 10 -4z m-1863 -28 c-3 -8 -6
-5 -6 6 -1 11 2 17 5 13 3 -3 4 -12 1 -19z m1420 0 c-3 -8 -6 -5 -6 6 -1 11 2
17 5 13 3 -3 4 -12 1 -19z m97 -22 c-11 -14 -23 -26 -28 -26 -5 0 0 10 11 23
11 12 18 29 15 37 -3 12 -2 12 8 3 10 -9 8 -17 -6 -37z m146 22 c0 -25 -16
-39 -35 -32 -13 5 -16 4 -11 -4 4 -7 1 -12 -7 -12 -16 0 -30 24 -20 34 4 3 17
6 30 6 13 0 23 5 23 10 0 6 5 10 10 10 6 0 10 -6 10 -12z m-207 -22 c4 -10 1
-13 -7 -10 -8 3 -17 1 -21 -5 -3 -6 -12 -11 -18 -11 -7 0 -1 9 13 20 30 24 27
23 33 6z m437 0 c0 -3 -4 -8 -10 -11 -5 -3 -10 -1 -10 4 0 6 5 11 10 11 6 0
10 -2 10 -4z m-1710 -21 c0 -8 -4 -15 -10 -15 -5 0 -10 7 -10 15 0 8 5 15 10
15 6 0 10 -7 10 -15z m1611 2 c-7 -7 -14 -8 -21 -1 -6 6 -2 10 12 11 16 2 18
-1 9 -10z m-67 -42 c-8 -11 -17 -28 -21 -37 -3 -10 -9 -18 -14 -18 -14 0 -11
11 8 32 30 34 5 30 -27 -4 -20 -20 -30 -26 -26 -15 3 10 6 23 6 28 0 6 4 8 9
5 12 -8 33 19 23 29 -4 4 3 2 16 -4 24 -13 29 -3 10 18 -11 11 -9 11 9 0 21
-12 21 -15 7 -34z m206 35 c0 -5 -5 -10 -11 -10 -5 0 -7 5 -4 10 3 6 8 10 11
10 2 0 4 -4 4 -10z m-1900 -10 c-8 -5 -19 -10 -25 -10 -5 0 -3 5 5 10 8 5 20
10 25 10 6 0 3 -5 -5 -10z m1525 0 c3 -5 -3 -10 -14 -10 -12 0 -21 5 -21 10 0
6 6 10 14 10 8 0 18 -4 21 -10z m562 -6 c3 -9 9 -11 12 -6 7 11 81 26 81 16 0
-3 -10 -17 -22 -30 -24 -25 -68 -33 -68 -12 0 6 -3 8 -7 5 -6 -7 -32 21 -33
36 0 14 31 7 37 -9z m-5757 -10 c0 -2 -7 -4 -15 -4 -8 0 -15 4 -15 10 0 5 7 7
15 4 8 -4 15 -8 15 -10z m355 6 c-3 -5 -12 -10 -18 -10 -7 0 -6 4 3 10 19 12
23 12 15 0z m4710 0 c-3 -5 -11 -10 -16 -10 -6 0 -7 5 -4 10 3 6 11 10 16 10
6 0 7 -4 4 -10z m629 -6 c10 -26 7 -34 -15 -34 -18 0 -20 -4 -15 -25 4 -14 2
-25 -4 -25 -9 0 -14 15 -23 73 -4 24 -1 27 23 27 16 0 30 -7 34 -16z m-5639
-12 c11 -1 45 -6 75 -11 53 -8 52 -9 -35 -9 -49 0 -85 2 -78 4 7 3 9 13 6 22
-3 10 -2 13 4 7 4 -6 17 -12 28 -13z m359 9 c4 -5 -3 -7 -14 -4 -23 6 -26 13
-6 13 8 0 17 -4 20 -9z m5106 -4 c0 -7 -9 -13 -21 -14 -17 -2 -18 1 -9 13 15
17 30 18 30 1z m60 9 c0 -2 -7 -9 -15 -16 -13 -11 -14 -10 -9 4 5 14 24 23 24
12z m318 -40 c11 -18 23 -43 27 -55 6 -20 4 -21 -58 -20 -74 2 -90 8 -81 32 6
18 40 31 63 25 8 -2 16 3 18 10 3 6 0 12 -6 12 -6 0 -8 7 -5 15 9 23 20 18 42
-19z m-5657 4 c6 0 7 5 4 10 -3 6 -1 10 4 10 13 0 15 -17 3 -24 -5 -3 -19 -2
-31 1 -17 4 -19 8 -9 14 7 5 14 4 16 -1 2 -6 8 -10 13 -10z m4889 -23 c0 -10
-4 -16 -10 -12 -5 3 -6 13 -3 22 4 11 3 14 -5 9 -8 -5 -10 -2 -5 9 5 13 7 14
14 3 5 -7 9 -21 9 -31z m-1931 18 c2 -3 -47 -4 -110 -4 -68 1 -102 4 -84 8 31
8 186 4 194 -4z m2036 5 c3 -5 1 -10 -4 -10 -6 0 -11 5 -11 10 0 6 2 10 4 10
3 0 8 -4 11 -10z m280 -10 c3 -5 1 -10 -4 -10 -6 0 -11 5 -11 10 0 6 2 10 4
10 3 0 8 -4 11 -10z m274 -3 c-2 -1 -11 -8 -20 -15 -13 -10 -18 -10 -22 1 -3
8 4 14 21 15 14 1 24 1 21 -1z m-4781 -27 c90 0 142 -4 142 -10 0 -10 -164 -8
-705 10 -231 8 -227 8 90 4 182 -2 394 -4 473 -4z m4632 -4 c0 -8 6 -16 13
-19 6 -2 9 -7 5 -11 -10 -11 -47 16 -41 31 7 17 23 17 23 -1z m-3170 -6 c0 -5
-7 -10 -15 -10 -8 0 -15 5 -15 10 0 6 7 10 15 10 8 0 15 -4 15 -10z m143 3
c-13 -2 -33 -2 -45 0 -13 2 -3 4 22 4 25 0 35 -2 23 -4z m867 -34 c0 -10 -4
-20 -9 -23 -11 -7 -23 22 -14 36 3 7 1 8 -5 4 -7 -4 -10 -17 -6 -30 3 -15 -1
-27 -12 -37 -10 -8 -15 -9 -11 -3 4 7 -2 14 -13 17 -11 3 -20 0 -21 -6 -1 -7
-2 -33 -4 -60 -2 -26 -9 -54 -16 -63 -7 -8 -8 -14 -3 -12 5 2 11 -2 12 -7 2
-6 8 -16 14 -22 7 -9 7 -13 -2 -13 -8 0 -10 -3 -7 -7 4 -3 2 -12 -4 -20 -16
-19 5 -17 25 2 27 27 38 18 35 -32 -3 -46 -2 -48 25 -51 26 -3 28 -6 23 -38
-3 -18 -3 -33 1 -33 30 5 42 -3 42 -26 0 -18 5 -25 20 -25 40 0 35 -54 -10
-108 -18 -21 -23 -23 -53 -13 -19 6 -47 25 -63 42 -16 17 -57 49 -91 72 -35
23 -63 46 -63 52 0 6 7 20 15 31 8 12 11 24 7 28 -3 4 2 4 12 0 14 -6 17 -2
14 17 -2 13 -9 23 -15 22 -9 -2 -10 4 -3 23 12 31 12 37 1 30 -15 -9 -7 58 9
72 8 8 9 11 3 7 -21 -10 -15 22 12 65 14 22 25 46 25 55 0 8 15 21 33 29 18 7
41 25 51 40 14 22 20 25 32 15 8 -6 14 -20 14 -30z m315 31 c3 -5 -1 -10 -10
-10 -20 0 -11 -16 17 -31 18 -10 20 -9 15 5 -8 21 -1 20 30 -4 32 -25 43 -25
43 -2 0 13 -7 18 -21 18 -12 -1 -23 5 -25 12 -1 7 0 8 3 2 2 -5 9 -7 14 -4 6
3 21 3 34 0 17 -4 22 -11 18 -25 -3 -11 -11 -22 -19 -25 -8 -3 -14 -16 -14
-29 0 -13 -3 -26 -6 -30 -11 -11 -34 5 -34 23 0 13 -6 17 -19 13 -10 -3 -22 0
-25 6 -11 18 -26 13 -26 -8 0 -26 -19 -36 -33 -18 -7 8 -30 26 -52 41 -36 24
-38 26 -15 26 14 0 43 12 65 25 45 28 51 29 60 15z m1555 0 c0 -5 -6 -10 -14
-10 -8 0 -16 -6 -19 -12 -2 -7 -8 -10 -12 -6 -9 8 16 37 33 38 6 0 12 -4 12
-10z m60 1 c0 -5 -7 -11 -15 -15 -15 -5 -20 5 -8 17 9 10 23 9 23 -2z m-4043
-7 c-3 -3 -12 -4 -19 -1 -8 3 -5 6 6 6 11 1 17 -2 13 -5z m71 -1 c-10 -2 -28
-2 -40 0 -13 2 -5 4 17 4 22 1 32 -1 23 -4z m280 0 c-32 -2 -84 -2 -115 0 -32
2 -6 3 57 3 63 0 89 -1 58 -3z m420 0 c-64 -2 -172 -2 -240 0 -68 1 -15 3 117
3 132 0 187 -2 123 -3z m3032 -28 c0 -24 -1 -24 -20 -8 -11 10 -20 21 -20 25
0 5 9 8 20 8 15 0 20 -7 20 -25z m258 11 c-10 -7 -16 -16 -13 -20 3 -3 0 -2
-6 3 -15 12 -3 31 19 31 16 -1 16 -2 0 -14z m-208 -17 c0 -6 -4 -7 -10 -4 -5
3 -10 11 -10 16 0 6 5 7 10 4 6 -3 10 -11 10 -16z m290 12 c0 -17 -22 -24 -31
-10 -7 11 -9 10 -9 -5 0 -11 -3 -17 -6 -13 -4 3 -4 13 -1 22 7 16 47 21 47 6z
m50 5 c0 -2 -7 -6 -15 -10 -8 -3 -15 -1 -15 4 0 6 7 10 15 10 8 0 15 -2 15 -4z
m230 -6 c12 -8 8 -10 -15 -11 -22 -1 -25 -3 -10 -7 l20 -5 -20 -8 c-18 -7 -18
-8 5 -8 19 -1 22 -3 10 -10 -8 -6 -18 -7 -22 -5 -4 3 -8 0 -8 -5 0 -6 -4 -11
-10 -11 -14 0 -12 54 2 68 14 14 28 15 48 2z m-430 -26 c0 -8 4 -14 9 -14 5 0
11 -7 14 -14 4 -10 1 -13 -8 -10 -7 3 -15 0 -18 -8 -2 -7 -3 -5 -1 6 1 10 -4
29 -13 42 -14 22 -14 24 1 18 9 -3 16 -12 16 -20z m-266 -6 c3 -14 0 -27 -9
-34 -8 -6 -16 -27 -18 -48 -6 -49 -14 -54 -22 -15 -5 22 -4 34 4 37 6 2 11 15
11 28 0 13 5 24 11 24 6 0 9 7 5 15 -3 8 -2 15 3 15 5 0 11 -10 15 -22z m510
-3 c16 -24 16 -25 -7 -25 -20 0 -23 4 -19 25 2 14 6 25 7 25 1 0 10 -11 19
-25z m66 -16 c0 -5 -6 -9 -13 -9 -17 0 -49 34 -41 43 8 7 54 -22 54 -34z m248
34 c-16 -2 -40 -2 -55 0 -16 2 -3 4 27 4 30 0 43 -2 28 -4z m236 -2 c4 -5 -3
-7 -14 -4 -11 3 -20 0 -20 -6 0 -6 -4 -11 -10 -11 -5 0 -7 7 -4 15 7 16 39 20
48 6z m-954 -16 c0 -8 -4 -15 -8 -15 -5 0 -9 7 -9 15 0 8 4 15 9 15 4 0 8 -7
8 -15z m627 9 c-3 -3 -12 -4 -19 -1 -8 3 -5 6 6 6 11 1 17 -2 13 -5z m-487
-14 c0 -5 -4 -10 -10 -10 -5 0 -10 5 -10 10 0 6 5 10 10 10 6 0 10 -4 10 -10z
m159 -37 c1 -7 -3 -13 -7 -13 -5 0 -9 15 -9 33 -1 26 1 28 7 12 5 -11 9 -26 9
-32z m71 43 c0 -3 -4 -8 -10 -11 -5 -3 -10 -1 -10 4 0 6 5 11 10 11 6 0 10 -2
10 -4z m390 -6 c0 -6 -28 -10 -65 -10 -70 0 -69 1 -68 -65 0 -16 -43 -17 -56
-1 -22 26 6 54 79 79 27 10 110 7 110 -3z m168 -41 c-3 -8 -7 -3 -11 10 -4 17
-3 21 5 13 5 -5 8 -16 6 -23z m-78 -36 c0 -3 -9 2 -20 12 -11 10 -20 22 -20
27 0 4 9 -1 20 -12 11 -11 20 -23 20 -27z m-300 12 c0 -8 -4 -15 -10 -15 -5 0
-10 7 -10 15 0 8 5 15 10 15 6 0 10 -7 10 -15z m220 8 c0 -14 -19 -38 -25 -32
-8 8 5 39 16 39 5 0 9 -3 9 -7z m-6660 -33 c0 -5 -5 -10 -11 -10 -5 0 -7 5 -4
10 3 6 8 10 11 10 2 0 4 -4 4 -10z m6197 -27 c7 -15 11 -29 8 -31 -3 -3 -5 -1
-5 5 0 6 -7 14 -16 17 -12 4 -14 1 -9 -14 7 -23 -10 -27 -19 -5 -5 15 12 55
24 55 3 0 11 -12 17 -27z m-5803 -33 c-6 -5 -24 21 -24 34 0 6 6 1 14 -10 8
-10 12 -21 10 -24z m6323 8 c-3 -8 -6 -5 -6 6 -1 11 2 17 5 13 3 -3 4 -12 1
-19z m-727 2 c0 -5 -4 -10 -10 -10 -5 0 -10 5 -10 10 0 6 5 10 10 10 6 0 10
-4 10 -10z m-50 -28 c0 -15 -2 -15 -10 -2 -13 20 -13 33 0 25 6 -3 10 -14 10
-23z m307 -34 c-3 -8 -6 -5 -6 6 -1 11 2 17 5 13 3 -3 4 -12 1 -19z m409 1 c3
-6 0 -15 -7 -20 -22 -13 -49 -11 -49 5 0 13 13 20 42 25 4 0 10 -4 14 -10z
m-2120 -14 c-10 -8 -23 -12 -29 -8 -11 7 12 23 33 23 12 -1 11 -4 -4 -15z
m1744 0 c-7 -8 -17 -15 -22 -15 -6 0 -5 7 2 15 7 8 17 15 22 15 6 0 5 -7 -2
-15z m305 -5 c3 -5 1 -10 -4 -10 -6 0 -11 5 -11 10 0 6 2 10 4 10 3 0 8 -4 11
-10z m-5778 -26 c-3 -3 -12 -4 -19 -1 -8 3 -5 6 6 6 11 1 17 -2 13 -5z m76 -1
c-7 -2 -21 -2 -30 0 -10 3 -4 5 12 5 17 0 24 -2 18 -5z m65 0 c-10 -2 -26 -2
-35 0 -10 3 -2 5 17 5 19 0 27 -2 18 -5z m70 0 c-10 -2 -26 -2 -35 0 -10 3 -2
5 17 5 19 0 27 -2 18 -5z m3482 -13 c0 -5 -4 -10 -10 -10 -5 0 -10 5 -10 10 0
6 5 10 10 10 6 0 10 -4 10 -10z m-2447 -7 c-24 -2 -62 -2 -85 0 -24 2 -5 4 42
4 47 0 66 -2 43 -4z m134 1 c-3 -3 -12 -4 -19 -1 -8 3 -5 6 6 6 11 1 17 -2 13
-5z m300 0 c-3 -3 -12 -4 -19 -1 -8 3 -5 6 6 6 11 1 17 -2 13 -5z m76 -1 c-7
-2 -19 -2 -25 0 -7 3 -2 5 12 5 14 0 19 -2 13 -5z m374 1 c-3 -3 -12 -4 -19
-1 -8 3 -5 6 6 6 11 1 17 -2 13 -5z m3213 2 c0 -3 -4 -8 -10 -11 -5 -3 -10 -1
-10 4 0 6 5 11 10 11 6 0 10 -2 10 -4z m-2470 -26 c0 -5 -7 -10 -16 -10 -8 0
-12 5 -9 10 3 6 10 10 16 10 5 0 9 -4 9 -10z m825 0 c-3 -5 -11 -10 -16 -10
-6 0 -7 5 -4 10 3 6 11 10 16 10 6 0 7 -4 4 -10z m-899 -26 c-3 -9 -6 -18 -6
-20 0 -2 -9 -4 -20 -4 -19 0 -19 1 -3 20 21 24 38 26 29 4z m345 -35 c-9 -22
-10 -22 -10 -3 -1 11 2 24 6 27 12 12 14 0 4 -24z m559 10 c0 -6 -4 -7 -10 -4
-5 3 -10 11 -10 16 0 6 5 7 10 4 6 -3 10 -11 10 -16z m-1038 -21 c-18 -18 -15
-33 3 -18 14 12 16 8 13 -24 l-2 -36 -24 24 c-20 20 -22 27 -13 45 7 11 17 21
23 21 9 0 9 -3 0 -12z m1323 -42 c10 8 23 14 28 14 14 0 -17 -27 -40 -34 -16
-5 -22 -1 -26 16 -5 20 -4 21 6 7 11 -15 15 -15 32 -3z m1515 -26 c0 -5 -2
-10 -4 -10 -3 0 -8 5 -11 10 -3 6 -1 10 4 10 6 0 11 -4 11 -10z m-220 -15 c-7
-8 -17 -15 -23 -15 -6 0 -2 7 9 15 25 19 30 19 14 0z m-120 -44 c0 -5 -9 -7
-20 -4 -11 3 -20 7 -20 9 0 2 9 4 20 4 11 0 20 -4 20 -9z"/>
<path d="M6345 3971 c-3 -5 -1 -12 5 -16 5 -3 10 1 10 9 0 18 -6 21 -15 7z"/>
<path d="M6720 3035 c-8 -9 -8 -15 -2 -15 12 0 26 19 19 26 -2 2 -10 -2 -17
-11z"/>
<path d="M6679 2888 c-8 -31 -7 -58 1 -58 5 0 10 7 10 16 0 8 5 12 10 9 6 -3
10 -3 10 0 0 7 -29 39 -31 33z"/>
<path d="M6560 2554 c0 -8 5 -12 10 -9 6 4 8 11 5 16 -9 14 -15 11 -15 -7z"/>
<path d="M5710 1100 c13 -23 20 -26 20 -6 0 8 -7 16 -15 20 -13 4 -14 2 -5
-14z"/>
<path d="M5510 959 c0 -5 5 -7 10 -4 6 3 10 8 10 11 0 2 -4 4 -10 4 -5 0 -10
-5 -10 -11z"/>
<path d="M4208 5473 c6 -2 18 -2 25 0 6 3 1 5 -13 5 -14 0 -19 -2 -12 -5z"/>
<path d="M4363 5473 c9 -2 23 -2 30 0 6 3 -1 5 -18 5 -16 0 -22 -2 -12 -5z"/>
<path d="M1758 5463 c12 -2 30 -2 40 0 9 3 -1 5 -23 4 -22 0 -30 -2 -17 -4z"/>
<path d="M1858 5463 c7 -3 16 -2 19 1 4 3 -2 6 -13 5 -11 0 -14 -3 -6 -6z"/>
<path d="M1313 5453 c26 -2 68 -2 95 0 26 2 4 3 -48 3 -52 0 -74 -1 -47 -3z"/>
<path d="M708 5433 c6 -2 18 -2 25 0 6 3 1 5 -13 5 -14 0 -19 -2 -12 -5z"/>
<path d="M82 4430 c0 -14 2 -19 5 -12 2 6 2 18 0 25 -3 6 -5 1 -5 -13z"/>
<path d="M83 4340 c0 -36 2 -50 4 -32 2 17 2 47 0 65 -2 17 -4 3 -4 -33z"/>
<path d="M62 4241 c0 -14 5 -31 10 -38 5 -7 7 -17 3 -23 -3 -5 0 -19 7 -29 12
-17 14 -12 13 46 -1 52 -5 67 -17 69 -11 1 -16 -6 -16 -25z"/>
<path d="M86 3883 c-4 -9 -3 -20 2 -25 6 -6 10 1 10 16 0 30 -3 32 -12 9z"/>
<path d="M6030 3848 c0 -29 6 -50 16 -59 9 -8 13 -21 10 -35 -4 -13 -2 -25 3
-28 4 -3 11 17 14 44 5 43 2 56 -18 87 l-25 36 0 -45z"/>
<path d="M87 3823 c-3 -5 -1 -17 4 -28 7 -17 8 -17 8 8 1 27 -4 34 -12 20z"/>
<path d="M5890 3796 c0 -3 17 -15 38 -27 20 -13 52 -39 69 -59 30 -33 33 -40
34 -115 2 -44 3 -89 4 -100 5 -49 4 -48 20 -35 18 15 52 4 60 -20 3 -11 17
-28 31 -39 14 -11 20 -21 13 -23 -9 -3 -7 -12 6 -31 9 -15 21 -24 26 -21 5 3
7 10 4 15 -4 5 1 9 10 9 14 0 14 3 0 30 -9 17 -22 30 -29 30 -16 0 -31 17 -40
47 -6 17 -2 22 15 25 12 2 24 9 27 15 2 9 -5 11 -26 7 -27 -6 -31 -3 -37 25
-3 16 -15 48 -26 70 -10 22 -19 45 -19 51 0 7 -19 31 -43 53 -23 23 -49 51
-57 63 -13 17 -80 42 -80 30z"/>
<path d="M92 3715 c0 -16 2 -22 5 -12 2 9 2 23 0 30 -3 6 -5 -1 -5 -18z"/>
<path d="M92 3650 c0 -19 2 -27 5 -17 2 9 2 25 0 35 -3 9 -5 1 -5 -18z"/>
<path d="M6100 3650 c0 -5 5 -10 11 -10 5 0 7 5 4 10 -3 6 -8 10 -11 10 -2 0
-4 -4 -4 -10z"/>
<path d="M6197 3488 c-2 -18 0 -39 7 -47 6 -8 10 -22 8 -33 -2 -11 3 -18 12
-18 12 0 13 6 6 31 -5 18 -7 35 -5 39 3 5 -1 20 -9 34 l-14 27 -5 -33z"/>
<path d="M88 3488 c-2 -7 -1 -44 2 -83 l7 -70 1 83 c2 78 -1 97 -10 70z"/>
<path d="M5682 3422 c5 -20 12 -55 15 -77 4 -29 12 -44 28 -51 21 -10 22 -10
12 20 -6 17 -19 49 -29 72 -10 22 -18 45 -18 52 0 6 -4 13 -9 16 -5 3 -5 -10
1 -32z"/>
<path d="M46 3442 c6 -4 14 -14 17 -22 4 -10 6 -8 6 8 1 15 -5 22 -16 22 -11
0 -14 -3 -7 -8z"/>
<path d="M5750 3426 c0 -8 4 -17 9 -20 5 -4 7 3 4 14 -6 23 -13 26 -13 6z"/>
<path d="M5956 3355 c7 -53 15 -75 38 -98 13 -12 20 -49 17 -86 -1 -7 -7 -11
-14 -8 -10 4 -13 -2 -9 -19 5 -29 22 -32 22 -4 0 11 4 20 9 20 14 0 26 -22 23
-42 -2 -9 6 -22 17 -28 14 -7 21 -7 21 0 0 5 -4 10 -10 10 -5 0 -10 5 -10 10
0 15 12 12 43 -13 83 -64 127 -119 127 -157 0 -14 5 -32 10 -40 7 -11 10 0 8
38 -1 36 -5 52 -15 52 -7 0 -13 4 -13 9 0 5 -14 23 -31 40 -17 17 -32 43 -34
58 -2 16 -11 54 -20 86 -8 32 -13 63 -9 68 3 5 -2 12 -10 15 -9 3 -16 12 -16
19 0 7 -8 19 -17 26 -15 12 -16 12 -11 -2 4 -10 12 -37 19 -60 7 -24 18 -51
26 -60 18 -21 16 -46 -3 -53 -20 -8 -74 20 -74 38 0 8 -3 22 -6 31 -6 15 -4
16 17 3 13 -7 29 -20 35 -28 7 -8 15 -12 18 -9 6 6 -38 60 -49 59 -24 -1 -26
3 -20 48 10 81 10 85 -2 89 -9 3 -13 -7 -13 -31 0 -24 -5 -36 -14 -36 -18 0
-39 26 -31 39 3 6 -1 23 -10 38 -15 28 -15 27 -9 -22z"/>
<path d="M5780 3364 c0 -5 11 -26 24 -45 14 -20 28 -48 31 -62 4 -15 13 -31
21 -38 18 -15 18 -8 -3 38 -20 43 -73 121 -73 107z"/>
<path d="M5601 3338 c40 -77 115 -162 132 -151 5 3 -7 18 -26 34 -19 16 -51
53 -71 84 -38 56 -57 74 -35 33z"/>
<path d="M93 3245 c0 -38 2 -53 4 -32 2 20 2 52 0 70 -2 17 -4 1 -4 -38z"/>
<path d="M7150 3268 c0 -4 4 -8 8 -8 5 0 9 -7 9 -15 0 -8 -4 -15 -9 -15 -4 0
-8 -4 -8 -10 0 -18 19 -10 25 11 4 12 12 18 21 15 11 -4 11 -2 3 12 -11 18
-49 25 -49 10z"/>
<path d="M7308 3243 c7 -3 16 -2 19 1 4 3 -2 6 -13 5 -11 0 -14 -3 -6 -6z"/>
<path d="M7363 3243 c9 -2 23 -2 30 0 6 3 -1 5 -18 5 -16 0 -22 -2 -12 -5z"/>
<path d="M7462 3203 l3 -48 95 -3 c66 -2 101 1 113 10 15 11 1 12 -82 10 l-99
-3 -4 30 c-5 34 -7 34 134 33 32 -1 60 3 63 9 4 5 -40 9 -110 9 l-116 0 3 -47z"/>
<path d="M7787 3229 c4 -13 8 -18 11 -10 2 7 -1 18 -6 23 -8 8 -9 4 -5 -13z"/>
<path d="M7901 3208 c-1 -27 3 -48 7 -48 4 0 6 17 4 38 -5 58 -10 62 -11 10z"/>
<path d="M5760 3213 c0 -16 5 -19 33 -14 23 3 26 6 12 9 -11 2 -26 9 -32 14
-10 8 -13 5 -13 -9z"/>
<path d="M7245 3210 c-9 -15 -1 -23 21 -18 15 3 16 4 1 16 -11 9 -17 10 -22 2z"/>
<path d="M7290 3205 c0 -9 6 -12 15 -9 8 4 12 10 9 15 -8 14 -24 10 -24 -6z"/>
<path d="M7345 3210 c3 -5 8 -10 11 -10 2 0 4 5 4 10 0 6 -5 10 -11 10 -5 0
-7 -4 -4 -10z"/>
<path d="M7095 3160 c-3 -5 -1 -10 4 -10 6 0 11 5 11 10 0 6 -2 10 -4 10 -3 0
-8 -4 -11 -10z"/>
<path d="M7903 3110 c0 -25 2 -35 4 -22 2 12 2 32 0 45 -2 12 -4 2 -4 -23z"/>
<path d="M7366 3133 c-61 -2 -115 -8 -122 -14 -8 -7 -14 -6 -17 3 -3 7 -6 3
-6 -9 -1 -26 11 -30 29 -8 10 12 55 15 276 15 l264 0 0 -49 c0 -30 -5 -51 -12
-53 -7 -3 -124 -5 -260 -6 -237 0 -308 -5 -308 -21 0 -4 14 -6 30 -3 30 4 30
4 30 -42 0 -25 5 -46 10 -46 6 0 10 22 10 49 l0 50 63 -3 c34 -2 70 -4 80 -5
12 -1 17 -9 17 -28 0 -32 -9 -48 -30 -56 -8 -3 -2 -6 15 -7 17 0 39 -7 49 -15
26 -20 129 -20 146 -1 6 8 21 16 33 18 17 2 22 10 22 32 l0 29 -91 -2 c-73 -2
-93 1 -104 14 -12 15 -5 16 77 14 50 -1 94 0 99 3 5 3 31 6 59 7 27 2 54 5 58
8 4 3 7 -17 5 -44 l-3 -48 -45 -6 -45 -6 53 -1 c50 -2 52 -1 52 26 1 15 3 69
7 120 l5 92 -168 -2 c-93 -1 -218 -4 -278 -5z"/>
<path d="M79 3073 c-8 -9 -9 -14 -3 -10 8 4 11 -12 10 -53 -1 -33 1 -66 6 -73
4 -6 8 25 8 71 0 45 -2 82 -4 82 -2 0 -10 -8 -17 -17z"/>
<path d="M7446 3071 c-4 -7 -5 -15 -2 -18 9 -9 19 4 14 18 -4 11 -6 11 -12 0z"/>
<path d="M7494 3069 c-3 -6 -1 -16 4 -21 8 -8 11 -5 9 11 -1 24 -3 25 -13 10z"/>
<path d="M7610 3065 c0 -8 4 -15 10 -15 5 0 7 7 4 15 -4 8 -8 15 -10 15 -2 0
-4 -7 -4 -15z"/>
<path d="M7651 3064 c0 -11 3 -14 6 -6 3 7 2 16 -1 19 -3 4 -6 -2 -5 -13z"/>
<path d="M7670 3070 c0 -5 5 -10 11 -10 5 0 7 5 4 10 -3 6 -8 10 -11 10 -2 0
-4 -4 -4 -10z"/>
<path d="M7277 3043 c-4 -3 -7 -11 -7 -17 0 -6 5 -5 12 2 6 6 9 14 7 17 -3 3
-9 2 -12 -2z"/>
<path d="M7125 2999 c5 -27 13 -35 23 -24 4 4 2 10 -5 12 -7 2 -9 11 -6 19 3
8 0 14 -5 14 -6 0 -9 -10 -7 -21z"/>
<path d="M7901 3004 c0 -11 3 -14 6 -6 3 7 2 16 -1 19 -3 4 -6 -2 -5 -13z"/>
<path d="M5756 2931 c26 -48 109 -141 126 -141 4 0 8 7 8 16 0 8 -4 13 -9 10
-10 -7 -96 85 -124 131 -30 52 -31 39 -1 -16z"/>
<path d="M7185 2970 c6 -10 -2 -12 -33 -8 -30 5 -42 2 -46 -9 -3 -8 -11 -11
-17 -7 -8 4 -9 3 -5 -4 4 -7 27 -12 51 -12 25 0 50 -6 57 -14 11 -11 15 -8 26
17 14 34 15 32 -17 42 -18 5 -22 4 -16 -5z"/>
<path d="M6190 2961 c0 -6 -7 -11 -16 -11 -8 0 -12 -4 -9 -10 9 -15 45 -12 45
4 0 8 -4 18 -10 21 -5 3 -10 1 -10 -4z"/>
<path d="M7953 2936 c-7 -8 -18 -16 -25 -19 -10 -3 -8 -9 6 -23 18 -19 18 -18
11 4 -6 21 -4 23 13 18 17 -6 19 -3 15 14 -3 11 -6 20 -7 20 0 -1 -6 -7 -13
-14z"/>
<path d="M85 2910 c-3 -5 -1 -10 4 -10 6 0 11 5 11 10 0 6 -2 10 -4 10 -3 0
-8 -4 -11 -10z"/>
<path d="M7353 2893 c9 -2 25 -2 35 0 9 3 1 5 -18 5 -19 0 -27 -2 -17 -5z"/>
<path d="M40 2871 c0 -5 7 -11 14 -14 10 -4 13 -1 9 9 -6 15 -23 19 -23 5z"/>
<path d="M5850 2866 c0 -9 7 -16 16 -16 9 0 14 5 12 12 -6 18 -28 21 -28 4z"/>
<path d="M7924 2861 c0 -11 6 -17 12 -14 7 2 14 -4 16 -14 3 -13 5 -11 10 9 3
15 1 25 -4 22 -5 -3 -14 -1 -21 5 -9 7 -13 5 -13 -8z"/>
<path d="M92 2811 c4 -31 -6 -43 -15 -18 -4 9 -6 9 -6 -1 -1 -7 6 -20 14 -28
12 -12 15 -12 16 -2 0 7 2 26 3 41 1 16 -2 31 -7 34 -6 3 -8 -8 -5 -26z"/>
<path d="M7497 2834 c-2 -2 -70 -4 -152 -5 -189 -2 -225 -6 -218 -26 5 -12 54
-13 352 -9 190 3 347 5 349 5 1 1 2 8 2 16 0 13 -23 15 -142 16 -79 0 -153 2
-166 3 -12 2 -23 1 -25 0z"/>
<path d="M7446 2763 c-1 -1 -81 -3 -178 -4 -97 -1 -183 -6 -190 -10 -8 -5 11
-9 47 -10 57 -2 58 -2 20 -9 -38 -7 -36 -7 20 -8 37 -1 55 2 47 7 -9 5 12 9
53 10 43 1 64 -2 60 -9 -3 -5 3 -10 15 -10 12 0 18 5 15 10 -3 6 -2 10 4 10 5
0 12 -3 15 -8 2 -4 71 -7 153 -5 81 1 182 2 224 2 66 1 77 4 82 20 4 18 -4 18
-190 17 -107 0 -196 -2 -197 -3z"/>
<path d="M63 2746 c4 -10 7 -22 7 -27 0 -5 7 -9 15 -9 8 0 15 -5 15 -12 0 -6
2 -9 5 -6 9 8 -6 38 -16 32 -5 -3 -9 2 -9 10 0 8 -5 18 -12 22 -8 5 -9 2 -5
-10z"/>
<path d="M7917 2740 c-3 -12 -1 -18 5 -13 7 4 8 1 4 -6 -5 -7 -14 -10 -22 -7
-12 5 -14 -35 -16 -247 0 -139 -2 -263 -3 -277 -1 -14 -5 -214 -8 -445 -5
-292 -4 -415 4 -402 5 9 15 17 22 17 9 0 9 -2 0 -8 -18 -11 -5 -85 13 -78 16
6 19 -10 4 -19 -6 -4 -17 -2 -25 5 -10 8 -15 8 -21 -1 -4 -8 -3 -9 5 -5 6 4
14 0 17 -9 5 -13 9 -13 22 -3 13 11 15 10 10 -3 -3 -9 -3 -22 2 -29 14 -22 30
524 31 1025 0 281 -2 330 -16 343 -4 4 -5 -1 -2 -11 4 -11 3 -16 -3 -12 -13 8
-13 31 1 57 8 16 13 17 19 8 5 -8 8 -4 7 12 -1 14 -7 24 -13 21 -6 -2 -14 5
-17 16 -3 12 -1 21 5 21 13 0 6 63 -8 67 -6 2 -14 -5 -17 -17z m1 -65 c1 -13
-3 -27 -8 -30 -11 -7 -14 38 -3 48 9 9 8 10 11 -18z m5 -55 c-10 -11 -19 -20
-21 -20 -1 0 2 9 8 20 6 11 15 20 20 20 6 0 2 -9 -7 -20z m17 -344 c0 -3 -4
-8 -10 -11 -5 -3 -10 -1 -10 4 0 6 5 11 10 11 6 0 10 -2 10 -4z m-20 -866 c0
-5 -5 -10 -11 -10 -5 0 -7 5 -4 10 3 6 8 10 11 10 2 0 4 -4 4 -10z"/>
<path d="M7957 2700 c-3 -11 -1 -20 4 -20 5 0 9 9 9 20 0 11 -2 20 -4 20 -2 0
-6 -9 -9 -20z"/>
<path d="M5905 2664 c4 -23 1 -35 -16 -50 -22 -20 -49 -66 -49 -83 0 -6 13 -2
30 7 16 9 30 23 30 30 0 6 5 12 10 12 6 0 10 -10 10 -23 0 -13 4 -27 9 -32 13
-14 83 -187 77 -192 -2 -3 -14 0 -25 6 -17 9 -20 9 -15 -3 6 -15 53 -28 67
-19 5 3 7 19 4 37 -3 19 1 37 10 47 11 13 11 17 1 16 -49 -2 -55 3 -73 59 -15
47 -20 76 -24 127 -1 5 -5 5 -11 2 -5 -3 -10 0 -10 8 0 8 -7 30 -15 48 l-16
34 6 -31z m-15 -88 c0 -3 -4 -8 -10 -11 -5 -3 -10 -1 -10 4 0 6 5 11 10 11 6
0 10 -2 10 -4z"/>
<path d="M5542 2645 c0 -16 2 -22 5 -12 2 9 2 23 0 30 -3 6 -5 -1 -5 -18z"/>
<path d="M40 2580 c0 -11 4 -20 9 -20 5 0 7 9 4 20 -3 11 -7 20 -9 20 -2 0 -4
-9 -4 -20z"/>
<path d="M5540 2586 c0 -8 5 -18 10 -21 6 -3 10 1 10 9 0 8 -4 18 -10 21 -5 3
-10 -1 -10 -9z"/>
<path d="M5597 2574 c-20 -27 -14 -32 10 -9 8 8 13 19 11 24 -2 5 -11 -2 -21
-15z"/>
<path d="M7018 2583 c7 -3 16 -2 19 1 4 3 -2 6 -13 5 -11 0 -14 -3 -6 -6z"/>
<path d="M7103 2583 c32 -2 81 -2 110 0 29 2 3 3 -58 3 -60 0 -84 -1 -52 -3z"/>
<path d="M7323 2583 c9 -2 23 -2 30 0 6 3 -1 5 -18 5 -16 0 -22 -2 -12 -5z"/>
<path d="M39 2525 c-5 -95 4 -412 12 -427 6 -11 8 -22 5 -25 -3 -3 0 -15 6
-27 9 -18 9 -19 -3 -9 -12 9 -14 4 -16 -28 -1 -21 2 -41 7 -44 6 -3 10 1 10 9
0 21 16 20 24 -1 7 -17 -9 -33 -31 -33 -7 0 -13 -5 -13 -10 0 -6 11 -8 24 -6
21 4 22 2 12 -19 -7 -15 -13 -19 -18 -12 -4 6 -10 9 -13 5 -3 -3 1 -13 10 -21
17 -17 20 -32 5 -22 -6 4 -10 -23 -10 -75 0 -49 4 -79 9 -75 6 3 15 -3 20 -14
14 -26 14 -40 0 -21 -9 13 -10 13 -6 -2 3 -9 1 -19 -6 -22 -7 -3 -1 -3 11 0
20 5 22 3 15 -13 -5 -10 -11 -35 -12 -55 -2 -32 0 -37 14 -31 15 5 16 3 7 -14
-6 -11 -9 -23 -5 -26 3 -4 2 -12 -4 -19 -13 -18 -11 -37 6 -47 9 -6 10 -11 2
-15 -6 -4 -11 -16 -11 -26 0 -10 -6 -20 -12 -23 -10 -3 -10 -7 1 -20 8 -11 9
-17 3 -17 -7 0 -9 -7 -5 -17 4 -11 3 -14 -5 -9 -7 4 -12 2 -12 -3 0 -6 4 -11
8 -11 4 0 8 -16 8 -35 0 -36 13 -59 21 -37 10 26 18 10 20 -39 1 -28 -2 -61
-8 -71 -8 -16 -8 -19 1 -13 7 4 16 1 22 -6 5 -9 7 46 4 146 -3 88 -8 311 -11
495 -7 413 -13 541 -28 559 -9 12 -9 13 1 7 10 -6 12 1 10 27 -1 24 -6 33 -15
30 -7 -3 -13 2 -13 10 0 9 -5 19 -12 23 -7 5 -8 3 -3 -6 5 -8 4 -11 -2 -7 -17
11 -14 75 5 94 16 16 16 16 -2 10 -15 -6 -17 -3 -13 12 2 10 1 25 -4 32 -7 11
-9 9 -10 -6z m51 -311 c0 -8 -4 -12 -10 -9 -5 3 -10 10 -10 16 0 5 5 9 10 9 6
0 10 -7 10 -16z m-23 -456 c-3 -8 -6 -5 -6 6 -1 11 2 17 5 13 3 -3 4 -12 1
-19z"/>
<path d="M7133 2513 c9 -2 23 -2 30 0 6 3 -1 5 -18 5 -16 0 -22 -2 -12 -5z"/>
<path d="M7308 2513 c7 -3 16 -2 19 1 4 3 -2 6 -13 5 -11 0 -14 -3 -6 -6z"/>
<path d="M5840 2470 c0 -5 5 -10 10 -10 6 0 10 5 10 10 0 6 -4 10 -10 10 -5 0
-10 -4 -10 -10z"/>
<path d="M5696 2389 c3 -6 0 -15 -7 -20 -11 -7 -10 -9 3 -9 10 0 25 -11 34
-25 9 -14 19 -24 21 -21 5 4 -46 86 -54 86 -2 0 -1 -5 3 -11z"/>
<path d="M5880 2357 c0 -20 5 -27 20 -27 11 0 20 4 20 8 0 5 -9 17 -20 27 -20
18 -20 17 -20 -8z"/>
<path d="M7298 2373 c6 -2 18 -2 25 0 6 3 1 5 -13 5 -14 0 -19 -2 -12 -5z"/>
<path d="M7463 2373 c9 -2 23 -2 30 0 6 3 -1 5 -18 5 -16 0 -22 -2 -12 -5z"/>
<path d="M6060 2310 c0 -5 5 -10 11 -10 5 0 7 5 4 10 -3 6 -8 10 -11 10 -2 0
-4 -4 -4 -10z"/>
<path d="M7468 2303 c7 -3 16 -2 19 1 4 3 -2 6 -13 5 -11 0 -14 -3 -6 -6z"/>
<path d="M7518 2303 c7 -3 16 -2 19 1 4 3 -2 6 -13 5 -11 0 -14 -3 -6 -6z"/>
<path d="M7558 2303 c7 -3 16 -2 19 1 4 3 -2 6 -13 5 -11 0 -14 -3 -6 -6z"/>
<path d="M5885 2050 c3 -5 8 -10 11 -10 2 0 4 5 4 10 0 6 -5 10 -11 10 -5 0
-7 -4 -4 -10z"/>
<path d="M5860 2020 c0 -5 5 -10 10 -10 6 0 10 5 10 10 0 6 -4 10 -10 10 -5 0
-10 -4 -10 -10z"/>
<path d="M5735 1935 c4 -22 11 -44 16 -49 15 -16 11 18 -6 55 l-16 34 6 -40z"/>
<path d="M5920 1951 c0 -6 4 -13 10 -16 6 -3 7 1 4 9 -7 18 -14 21 -14 7z"/>
<path d="M5630 1848 c0 -18 18 -34 28 -24 3 4 -2 14 -11 23 -16 16 -17 16 -17
1z"/>
<path d="M5991 1844 c0 -11 3 -14 6 -6 3 7 2 16 -1 19 -3 4 -6 -2 -5 -13z"/>
<path d="M5549 1742 c18 -23 53 -56 77 -73 24 -16 44 -34 44 -38 0 -12 80 -94
86 -88 3 2 -15 25 -38 49 -24 25 -57 61 -75 79 -17 19 -53 52 -80 74 l-48 40
34 -43z"/>
<path d="M6175 1760 c4 -6 11 -8 16 -5 14 9 11 15 -7 15 -8 0 -12 -5 -9 -10z"/>
<path d="M5754 1734 c3 -9 6 -18 6 -20 0 -2 7 -4 15 -4 13 0 13 3 3 20 -15 24
-33 27 -24 4z"/>
<path d="M6135 1680 c3 -5 13 -10 21 -10 11 0 13 -6 8 -22 -6 -20 -5 -21 9
-10 22 19 10 52 -20 52 -13 0 -21 -4 -18 -10z"/>
<path d="M5880 1670 c8 -5 22 -10 30 -10 13 0 13 1 0 10 -8 5 -22 10 -30 10
-13 0 -13 -1 0 -10z"/>
<path d="M5961 1656 c22 -22 80 -53 84 -46 4 6 1 10 -5 10 -7 0 -23 9 -37 20
-22 17 -56 30 -42 16z"/>
<path d="M6380 1640 c0 -5 10 -15 23 -21 22 -12 22 -12 3 10 -21 23 -26 26
-26 11z"/>
<path d="M6480 1635 c-7 -9 -11 -18 -8 -20 9 -10 38 7 38 21 0 18 -14 18 -30
-1z"/>
<path d="M6116 1619 c9 -10 21 -16 25 -13 16 10 9 22 -16 27 -24 4 -25 3 -9
-14z"/>
<path d="M6150 1595 c-8 -9 -8 -15 -2 -15 12 0 26 19 19 26 -2 2 -10 -2 -17
-11z"/>
<path d="M6150 1566 c0 -2 7 -7 16 -10 8 -3 12 -2 9 4 -6 10 -25 14 -25 6z"/>
<path d="M5775 1530 c3 -5 11 -10 16 -10 6 0 7 5 4 10 -3 6 -11 10 -16 10 -6
0 -7 -4 -4 -10z"/>
<path d="M6015 1530 c-3 -5 -1 -10 4 -10 6 0 11 5 11 10 0 6 -2 10 -4 10 -3 0
-8 -4 -11 -10z"/>
<path d="M6615 1511 c11 -10 37 -21 57 -24 36 -5 37 -5 26 19 -10 21 -12 22
-23 7 -12 -16 -14 -16 -38 0 -35 23 -46 22 -22 -2z"/>
<path d="M6093 1502 c11 -12 15 -26 10 -38 -6 -17 -5 -17 10 -5 24 19 21 36
-10 50 -27 12 -27 12 -10 -7z"/>
<path d="M6409 1507 c15 -19 41 -23 41 -7 0 6 -4 10 -9 10 -5 0 -18 3 -28 7
-16 6 -16 5 -4 -10z"/>
<path d="M6157 1503 c-4 -7 -3 -15 3 -18 8 -5 7 -11 -1 -21 -14 -17 -3 -32 12
-17 8 8 8 20 2 39 -6 17 -12 24 -16 17z"/>
<path d="M6364 1495 c11 -8 22 -12 25 -9 6 6 -19 24 -34 24 -5 -1 -1 -7 9 -15z"/>
<path d="M5948 1493 c-10 -2 -18 -8 -18 -13 0 -14 18 -21 25 -10 4 6 11 8 16
5 5 -4 9 1 9 9 0 16 -2 17 -32 9z"/>
<path d="M6052 1478 c6 -18 28 -21 28 -4 0 9 -7 16 -16 16 -9 0 -14 -5 -12
-12z"/>
<path d="M5995 1469 c-4 -6 -5 -13 -2 -16 7 -7 27 6 27 18 0 12 -17 12 -25 -2z"/>
<path d="M6262 1458 c-19 -19 -14 -30 8 -18 11 6 20 15 20 20 0 14 -14 12 -28
-2z"/>
<path d="M6600 1459 c0 -7 -8 -18 -17 -25 -15 -11 -16 -15 -4 -23 7 -5 10 -14
7 -20 -4 -7 -2 -10 5 -9 7 2 13 -5 14 -14 0 -24 15 -21 41 8 23 24 22 36 -3
27 -12 -5 -14 -1 -8 15 4 14 2 22 -6 22 -9 0 -8 4 1 15 10 13 9 15 -9 15 -11
0 -21 -5 -21 -11z"/>
<path d="M6670 1460 c0 -5 5 -10 11 -10 5 0 7 5 4 10 -3 6 -8 10 -11 10 -2 0
-4 -4 -4 -10z"/>
<path d="M6360 1450 c-8 -5 -22 -7 -32 -4 -20 6 -34 -14 -19 -29 6 -6 24 -11
40 -12 16 -1 35 -6 43 -12 21 -17 78 -27 78 -13 0 7 8 9 20 5 11 -4 20 -2 20
4 0 6 7 11 16 11 8 0 12 5 9 10 -3 6 -23 10 -43 10 -21 0 -48 8 -62 17 -18 13
-22 13 -18 2 4 -10 -2 -14 -22 -14 -16 0 -32 4 -37 9 -4 5 -3 6 4 2 6 -3 15
-1 18 5 10 15 2 20 -15 9z m85 -40 c3 -5 1 -10 -4 -10 -6 0 -11 5 -11 10 0 6
2 10 4 10 3 0 8 -4 11 -10z"/>
<path d="M6693 1435 c-8 -9 -9 -16 -3 -20 6 -3 13 1 16 10 9 21 2 26 -13 10z"/>
<path d="M7190 1411 c0 -5 7 -11 14 -14 10 -4 13 -1 9 9 -6 15 -23 19 -23 5z"/>
<path d="M7242 1387 c3 -15 1 -28 -4 -29 -5 -2 1 -12 14 -23 12 -11 18 -13 11
-5 -6 8 -10 27 -8 42 2 16 -2 31 -7 34 -7 5 -9 -2 -6 -19z"/>
<path d="M6691 1364 c0 -11 3 -14 6 -6 3 7 2 16 -1 19 -3 4 -6 -2 -5 -13z"/>
<path d="M6640 1344 c0 -18 15 -31 43 -38 16 -4 27 -2 27 4 0 5 -8 10 -17 10
-9 0 -25 7 -35 17 -10 9 -18 12 -18 7z"/>
<path d="M6350 1310 c0 -19 3 -21 12 -12 9 9 9 15 0 24 -9 9 -12 7 -12 -12z"/>
<path d="M7872 1300 c0 -14 2 -19 5 -12 2 6 2 18 0 25 -3 6 -5 1 -5 -13z"/>
<path d="M5720 1290 c0 -5 5 -10 10 -10 6 0 10 5 10 10 0 6 -4 10 -10 10 -5 0
-10 -4 -10 -10z"/>
<path d="M6450 1290 c0 -5 5 -10 10 -10 6 0 10 5 10 10 0 6 -4 10 -10 10 -5 0
-10 -4 -10 -10z"/>
<path d="M6670 1293 c0 -5 12 -26 25 -48 29 -47 30 -49 9 -69 -14 -15 -13 -16
6 -16 16 0 20 -4 16 -15 -3 -8 -1 -15 4 -15 25 0 6 -19 -40 -41 -43 -20 -51
-28 -48 -49 3 -31 -8 -51 -25 -44 -9 3 -16 -14 -23 -51 -5 -31 -7 -58 -4 -60
4 -2 5 -18 2 -35 -3 -23 1 -37 17 -51 25 -24 44 -16 36 14 -2 12 -2 16 1 10
11 -24 26 -14 20 12 -4 14 -2 25 2 25 10 0 7 54 -4 71 -10 17 7 49 28 49 14 0
18 5 14 15 -3 9 0 15 9 15 8 0 15 -7 15 -15 0 -8 5 -15 10 -15 6 0 10 4 10 9
0 6 -4 13 -10 16 -16 10 -12 25 8 26 11 0 12 2 4 6 -7 3 -19 -1 -27 -7 -9 -7
-15 -8 -15 -2 0 10 45 34 88 47 28 8 29 23 0 27 -12 2 -24 9 -26 17 -3 10 0
12 12 8 9 -4 16 -2 16 3 0 6 -7 10 -15 10 -18 0 -20 20 -2 21 6 0 2 4 -10 9
-14 6 -24 21 -29 45 -3 19 -10 38 -15 40 -4 3 -6 12 -3 20 4 10 0 12 -15 8
-12 -3 -21 -1 -21 6 0 6 -4 11 -10 11 -5 0 -10 -3 -10 -7z"/>
<path d="M5645 1250 c3 -5 8 -10 11 -10 2 0 4 5 4 10 0 6 -5 10 -11 10 -5 0
-7 -4 -4 -10z"/>
<path d="M6367 1249 c7 -7 15 -10 18 -7 3 3 -2 9 -12 12 -14 6 -15 5 -6 -5z"/>
<path d="M6535 1240 c3 -5 8 -10 11 -10 2 0 4 5 4 10 0 6 -5 10 -11 10 -5 0
-7 -4 -4 -10z"/>
<path d="M6220 1234 c0 -17 26 -92 42 -122 10 -18 18 -39 18 -47 0 -15 18 -30
26 -22 6 6 -65 185 -77 193 -5 3 -9 2 -9 -2z"/>
<path d="M6560 1231 c0 -5 6 -16 13 -23 6 -7 18 -24 25 -38 27 -52 46 -70 70
-64 13 4 22 14 22 26 0 16 -3 18 -14 9 -14 -12 -46 -5 -46 10 0 4 6 6 14 3 7
-3 16 2 20 11 3 9 2 13 -4 10 -6 -3 -13 1 -16 9 -3 9 -12 16 -19 16 -6 0 -20
9 -30 20 -19 21 -35 26 -35 11z"/>
<path d="M5435 1210 c-4 -6 3 -10 14 -10 25 0 27 6 6 13 -8 4 -17 2 -20 -3z"/>
<path d="M6429 1208 c-1 -10 -2 -21 -3 -25 -1 -5 -5 -26 -10 -47 -4 -22 -18
-61 -31 -88 -18 -37 -20 -48 -9 -48 8 0 14 6 14 14 0 7 6 19 14 26 8 6 12 18
9 26 -3 8 0 20 5 27 17 21 32 99 22 116 -8 14 -10 14 -11 -1z"/>
<path d="M6665 1200 c3 -5 13 -10 21 -10 8 0 14 5 14 10 0 6 -9 10 -21 10 -11
0 -17 -4 -14 -10z"/>
<path d="M6855 1200 c3 -5 11 -10 16 -10 6 0 7 5 4 10 -3 6 -11 10 -16 10 -6
0 -7 -4 -4 -10z"/>
<path d="M78 1178 c10 -13 10 -17 0 -20 -8 -3 -9 -6 -1 -11 18 -12 23 21 5 35
-15 11 -16 11 -4 -4z"/>
<path d="M5411 1174 c0 -11 3 -14 6 -6 3 7 2 16 -1 19 -3 4 -6 -2 -5 -13z"/>
<path d="M6860 1160 c0 -19 3 -21 12 -12 9 9 9 15 0 24 -9 9 -12 7 -12 -12z"/>
<path d="M6150 1163 c0 -9 94 -122 99 -118 2 3 -13 24 -33 49 -20 24 -36 49
-36 54 0 5 -7 12 -15 16 -8 3 -15 3 -15 -1z"/>
<path d="M7923 1125 c-6 -15 -7 -25 -1 -25 5 0 6 -4 3 -10 -3 -5 -2 -10 3 -10
6 0 10 16 10 35 0 19 -1 35 -1 35 -1 0 -7 -11 -14 -25z"/>
<path d="M6905 1130 c3 -5 8 -10 11 -10 2 0 4 5 4 10 0 6 -5 10 -11 10 -5 0
-7 -4 -4 -10z"/>
<path d="M6053 1112 c4 -5 24 -20 44 -32 20 -12 32 -16 26 -8 -15 17 -78 54
-70 40z"/>
<path d="M6996 1095 c4 -8 11 -15 16 -15 6 0 5 6 -2 15 -7 8 -14 15 -16 15 -2
0 -1 -7 2 -15z"/>
<path d="M7863 1045 c0 -22 2 -30 4 -17 2 12 2 30 0 40 -3 9 -5 -1 -4 -23z"/>
<path d="M6534 1019 l-19 -21 39 16 c51 21 55 26 24 26 -14 0 -33 -10 -44 -21z"/>
<path d="M6307 999 c4 -13 8 -18 11 -10 2 7 -1 18 -6 23 -8 8 -9 4 -5 -13z"/>
<path d="M80 994 c0 -8 5 -12 10 -9 6 4 8 11 5 16 -9 14 -15 11 -15 -7z"/>
<path d="M132 980 c0 -19 2 -27 5 -17 2 9 2 25 0 35 -3 9 -5 1 -5 -18z"/>
<path d="M7692 1003 c-4 -2 -40 -4 -80 -5 -40 -2 -72 -7 -72 -13 0 -6 48 -10
124 -10 115 1 149 6 133 21 -5 6 -90 11 -105 7z"/>
<path d="M6456 964 c-11 -8 -28 -14 -37 -14 -30 0 -29 -15 1 -17 17 -1 35 6
45 18 23 24 17 32 -9 13z"/>
<path d="M6505 955 c-11 -48 -14 -55 -25 -55 -5 0 -10 7 -10 15 0 13 -4 14
-20 5 -11 -6 -20 -16 -20 -23 0 -8 3 -8 9 2 7 11 11 10 20 -7 16 -30 121 -57
121 -32 0 6 -6 10 -13 10 -23 0 -49 37 -42 59 3 11 2 28 -4 38 -8 15 -10 14
-16 -12z"/>
<path d="M7693 862 c-57 -2 -83 -7 -83 -15 0 -16 182 -17 187 -1 6 17 -12 19
-104 16z"/>
<path d="M7608 777 c4 -16 14 -17 90 -13 47 3 90 10 96 16 6 6 6 10 1 10 -6 1
-51 2 -101 3 -83 2 -90 0 -86 -16z"/>
<path d="M73 725 c0 -33 2 -45 4 -27 2 18 2 45 0 60 -2 15 -4 0 -4 -33z"/>
<path d="M2186 726 c3 -9 11 -16 16 -16 13 0 5 23 -10 28 -7 2 -10 -2 -6 -12z"/>
<path d="M598 723 c7 -3 16 -2 19 1 4 3 -2 6 -13 5 -11 0 -14 -3 -6 -6z"/>
<path d="M2275 720 c-3 -5 -1 -10 4 -10 6 0 11 5 11 10 0 6 -2 10 -4 10 -3 0
-8 -4 -11 -10z"/>
<path d="M2238 713 c7 -3 16 -2 19 1 4 3 -2 6 -13 5 -11 0 -14 -3 -6 -6z"/>
<path d="M3215 700 c3 -5 8 -10 11 -10 2 0 4 5 4 10 0 6 -5 10 -11 10 -5 0 -7
-4 -4 -10z"/>
<path d="M1288 693 c7 -3 16 -2 19 1 4 3 -2 6 -13 5 -11 0 -14 -3 -6 -6z"/>
<path d="M1408 683 c6 -2 18 -2 25 0 6 3 1 5 -13 5 -14 0 -19 -2 -12 -5z"/>
<path d="M4839 668 c-7 -18 -5 -78 2 -78 6 0 7 -4 4 -10 -12 -20 12 -9 35 15
l23 25 -27 25 c-25 23 -34 29 -37 23z"/>
<path d="M222 650 c11 -39 77 -46 533 -55 149 -3 282 -8 298 -10 15 -3 27 -1
27 3 0 5 -176 14 -390 21 -384 12 -445 18 -463 43 -6 10 -8 9 -5 -2z"/>
<path d="M6547 610 c-3 -11 -1 -20 4 -20 5 0 9 2 9 4 0 2 3 11 6 20 3 9 2 16
-4 16 -5 0 -12 -9 -15 -20z"/>
<path d="M1248 583 c39 -2 105 -2 145 0 39 1 7 3 -73 3 -80 0 -112 -2 -72 -3z"/>
<path d="M1470 579 c0 -6 253 -14 1000 -29 542 -11 2147 -16 2157 -7 3 4 -41
7 -98 6 -233 -1 -1881 12 -1974 16 -81 3 -758 16 -1022 19 -35 1 -63 -2 -63
-5z"/>
<path d="M6515 505 c-10 -30 -15 -58 -12 -61 3 -3 13 20 22 51 21 74 13 83
-10 10z"/>
<path d="M4681 534 c0 -11 3 -14 6 -6 3 7 2 16 -1 19 -3 4 -6 -2 -5 -13z"/>
<path d="M4719 523 c-13 -16 -12 -17 4 -4 16 13 21 21 13 21 -2 0 -10 -8 -17
-17z"/>
<path d="M4800 480 c0 -5 7 -10 15 -10 9 0 12 -6 8 -17 -5 -15 -3 -16 7 -6 11
10 11 15 0 28 -14 17 -30 20 -30 5z"/>
<path d="M6391 354 c0 -11 3 -14 6 -6 3 7 2 16 -1 19 -3 4 -6 -2 -5 -13z"/>
<path d="M7395 310 c-3 -5 1 -10 10 -10 9 0 13 5 10 10 -3 6 -8 10 -10 10 -2
0 -7 -4 -10 -10z"/>
<path d="M7500 296 c0 -2 7 -9 15 -16 9 -7 15 -8 15 -2 0 5 -7 12 -15 16 -8 3
-15 4 -15 2z"/>
<path d="M7440 250 c0 -5 5 -10 11 -10 5 0 7 5 4 10 -3 6 -8 10 -11 10 -2 0
-4 -4 -4 -10z"/>
<path d="M7503 235 c0 -15 4 -24 11 -22 6 2 11 12 11 22 0 10 -5 20 -11 22 -7
2 -11 -7 -11 -22z"/>
<path d="M7546 223 c-3 -7 1 -13 8 -13 8 0 16 6 19 13 3 8 -1 14 -9 14 -7 0
-15 -6 -18 -14z"/>
<path d="M7655 172 c-5 -4 -11 -23 -12 -42 -1 -21 -9 -41 -22 -51 -12 -10 -21
-21 -21 -25 0 -13 42 30 56 59 8 15 12 32 9 37 -3 6 -1 10 4 10 6 0 11 5 11
10 0 12 -11 13 -25 2z"/>
<path d="M7550 136 c0 -8 7 -16 15 -20 9 -3 15 0 15 8 0 8 -7 16 -15 20 -9 3
-15 0 -15 -8z"/>
</g>
</svg>
